<?xml version="1.0" encoding="UTF-8" standalone="yes"?><svg xmlns="http://www.w3.org/2000/svg" xmlns:xlink="http://www.w3.org/1999/xlink" height="1397pt" style="width:843px;height:1397px;" version="1.1" viewBox="0 0 843 1397" width="843pt"><defs><linearGradient id="gr0" x1="0%" x2="100%" y1="50%" y2="50%"><stop offset="0%" stop-color="#FEF3E3"/><stop offset="100%" stop-color="#E8D7BE"/></linearGradient><filter height="300%" id="f1" width="300%" x="-1" y="-1"><feGaussianBlur result="blurOut" stdDeviation="2"/><feColorMatrix in="blurOut" result="blurOut2" type="matrix" values="0 0 0 0 0 0 0 0 0 0 0 0 0 0 0 0 0 0 .4 0"/><feOffset dx="4" dy="4" in="blurOut2" result="blurOut3"/><feBlend in="SourceGraphic" in2="blurOut3" mode="normal"/></filter></defs><g><text fill="#000000" font-size="18" lengthAdjust="spacingAndGlyphs" textLength="119" x="378" y="18">ukagaka-shell</text><rect fill="url(#gr0)" filter="url(#f1)" height="117.8438" style="stroke: #000000; stroke-width: 1.5;" width="383" x="75.2782" y="532.9531"/><ellipse cx="235.5282" cy="548.9531" fill="#ADD1B2" rx="11" ry="11" style="stroke: #000000; stroke-width: 1.0;"/><path d="M238.497,554.5938 Q237.9188,554.8906 237.2782,555.0391 Q236.6376,555.1875 235.9345,555.1875 Q233.4345,555.1875 232.1141,553.5391 Q230.7938,551.8906 230.7938,548.7656 Q230.7938,545.6406 232.1141,543.9844 Q233.4345,542.3281 235.9345,542.3281 Q236.6376,542.3281 237.286,542.4844 Q237.9345,542.6406 238.497,542.9375 L238.497,545.6563 Q237.872,545.0781 237.2782,544.8047 Q236.6845,544.5313 236.0595,544.5313 Q234.7157,544.5313 234.0282,545.6016 Q233.3407,546.6719 233.3407,548.7656 Q233.3407,550.8594 234.0282,551.9297 Q234.7157,553 236.0595,553 Q236.6845,553 237.2782,552.7266 Q237.872,552.4531 238.497,551.875 L238.497,554.5938 Z "/><text fill="#000000" font-family="sans-serif" font-size="12" font-weight="bold" lengthAdjust="spacingAndGlyphs" textLength="54" x="256.0282" y="553.9688">Vector3</text><line style="stroke: #000000; stroke-width: 1.5;" x1="76.2782" x2="457.2782" y1="564.9531" y2="564.9531"/><ellipse cx="86.2782" cy="577.4375" fill="none" rx="3" ry="3" style="stroke: #038048; stroke-width: 1.0;"/><text fill="#000000" font-family="sans-serif" font-size="12" lengthAdjust="spacingAndGlyphs" textLength="63" x="95.2782" y="580.9531">x: Number</text><ellipse cx="86.2782" cy="591.4063" fill="none" rx="3" ry="3" style="stroke: #038048; stroke-width: 1.0;"/><text fill="#000000" font-family="sans-serif" font-size="12" lengthAdjust="spacingAndGlyphs" textLength="63" x="95.2782" y="594.9219">y: Number</text><ellipse cx="86.2782" cy="605.375" fill="none" rx="3" ry="3" style="stroke: #038048; stroke-width: 1.0;"/><text fill="#000000" font-family="sans-serif" font-size="12" lengthAdjust="spacingAndGlyphs" textLength="62" x="95.2782" y="608.8906">z: Number</text><ellipse cx="86.2782" cy="619.3438" fill="none" rx="3" ry="3" style="stroke: #038048; stroke-width: 1.0;"/><text fill="#000000" font-family="sans-serif" font-size="12" lengthAdjust="spacingAndGlyphs" textLength="357" x="95.2782" y="622.8594">matrixs: [[Geometry.matrix,],[CoordinateSystem.matrix,],]</text><line style="stroke: #000000; stroke-width: 1.5;" x1="76.2782" x2="457.2782" y1="628.8281" y2="628.8281"/><ellipse cx="86.2782" cy="641.3125" fill="#84BE84" rx="3" ry="3" style="stroke: #038048; stroke-width: 1.0;"/><text fill="#000000" font-family="sans-serif" font-size="12" lengthAdjust="spacingAndGlyphs" textLength="163" x="95.2782" y="644.8281">addTo(CoordinateSystem)</text><rect fill="url(#gr0)" filter="url(#f1)" height="145.7813" style="stroke: #000000; stroke-width: 1.5;" width="213" x="160.278" y="269.9531"/><ellipse cx="240.528" cy="285.9531" fill="#ADD1B2" rx="11" ry="11" style="stroke: #000000; stroke-width: 1.0;"/><path d="M243.4968,291.5938 Q242.9186,291.8906 242.278,292.0391 Q241.6374,292.1875 240.9343,292.1875 Q238.4343,292.1875 237.1139,290.5391 Q235.7936,288.8906 235.7936,285.7656 Q235.7936,282.6406 237.1139,280.9844 Q238.4343,279.3281 240.9343,279.3281 Q241.6374,279.3281 242.2858,279.4844 Q242.9343,279.6406 243.4968,279.9375 L243.4968,282.6563 Q242.8718,282.0781 242.278,281.8047 Q241.6843,281.5313 241.0593,281.5313 Q239.7155,281.5313 239.028,282.6016 Q238.3405,283.6719 238.3405,285.7656 Q238.3405,287.8594 239.028,288.9297 Q239.7155,290 241.0593,290 Q241.6843,290 242.278,289.7266 Q242.8718,289.4531 243.4968,288.875 L243.4968,291.5938 Z "/><text fill="#000000" font-family="sans-serif" font-size="12" font-weight="bold" lengthAdjust="spacingAndGlyphs" textLength="44" x="261.028" y="290.9688">Matrix</text><line style="stroke: #000000; stroke-width: 1.5;" x1="161.278" x2="372.278" y1="301.9531" y2="301.9531"/><ellipse cx="171.278" cy="314.4375" fill="none" rx="3" ry="3" style="stroke: #038048; stroke-width: 1.0;"/><text fill="#000000" font-family="sans-serif" font-size="12" lengthAdjust="spacingAndGlyphs" textLength="77" x="180.278" y="317.9531">[[Number,],]</text><line style="stroke: #000000; stroke-width: 1.5;" x1="161.278" x2="372.278" y1="323.9219" y2="323.9219"/><ellipse cx="171.278" cy="336.4063" fill="#84BE84" rx="3" ry="3" style="stroke: #038048; stroke-width: 1.0;"/><text fill="#000000" font-family="sans-serif" font-size="12" lengthAdjust="spacingAndGlyphs" textLength="187" x="180.278" y="339.9219">rotate(xAngle, yAngle, zAngle)</text><ellipse cx="171.278" cy="350.375" fill="#84BE84" rx="3" ry="3" style="stroke: #038048; stroke-width: 1.0;"/><text fill="#000000" font-family="sans-serif" font-size="12" lengthAdjust="spacingAndGlyphs" textLength="100" x="180.278" y="353.8906">translate(x, y, z)</text><ellipse cx="171.278" cy="364.3438" fill="#84BE84" rx="3" ry="3" style="stroke: #038048; stroke-width: 1.0;"/><text fill="#000000" font-family="sans-serif" font-size="12" lengthAdjust="spacingAndGlyphs" textLength="178" x="180.278" y="367.8594">scale(xScale, yScale, zScale)</text><ellipse cx="171.278" cy="378.3125" fill="#84BE84" rx="3" ry="3" style="stroke: #038048; stroke-width: 1.0;"/><text fill="#000000" font-family="sans-serif" font-size="12" lengthAdjust="spacingAndGlyphs" textLength="168" x="180.278" y="381.8281">premultiply(Matrix|Number)</text><ellipse cx="171.278" cy="392.2813" fill="#84BE84" rx="3" ry="3" style="stroke: #038048; stroke-width: 1.0;"/><text fill="#000000" font-family="sans-serif" font-size="12" lengthAdjust="spacingAndGlyphs" textLength="147" x="180.278" y="395.7969">multiply(Matrix|Number)</text><ellipse cx="171.278" cy="406.25" fill="#84BE84" rx="3" ry="3" style="stroke: #038048; stroke-width: 1.0;"/><text fill="#000000" font-family="sans-serif" font-size="12" lengthAdjust="spacingAndGlyphs" textLength="71" x="180.278" y="409.7656">add(Matrix)</text><rect fill="url(#gr0)" filter="url(#f1)" height="191.6875" style="stroke: #000000; stroke-width: 1.5;" width="239" x="97.2782" y="797.9531"/><ellipse cx="178.0282" cy="813.9531" fill="#ADD1B2" rx="11" ry="11" style="stroke: #000000; stroke-width: 1.0;"/><path d="M180.997,819.5938 Q180.4188,819.8906 179.7782,820.0391 Q179.1376,820.1875 178.4345,820.1875 Q175.9345,820.1875 174.6141,818.5391 Q173.2938,816.8906 173.2938,813.7656 Q173.2938,810.6406 174.6141,808.9844 Q175.9345,807.3281 178.4345,807.3281 Q179.1376,807.3281 179.786,807.4844 Q180.4345,807.6406 180.997,807.9375 L180.997,810.6563 Q180.372,810.0781 179.7782,809.8047 Q179.1845,809.5313 178.5595,809.5313 Q177.2157,809.5313 176.5282,810.6016 Q175.8407,811.6719 175.8407,813.7656 Q175.8407,815.8594 176.5282,816.9297 Q177.2157,818 178.5595,818 Q179.1845,818 179.7782,817.7266 Q180.372,817.4531 180.997,816.875 L180.997,819.5938 Z "/><text fill="#000000" font-family="sans-serif" font-size="12" font-weight="bold" lengthAdjust="spacingAndGlyphs" textLength="69" x="198.5282" y="818.9688">Geometry</text><line style="stroke: #000000; stroke-width: 1.5;" x1="98.2782" x2="335.2782" y1="829.9531" y2="829.9531"/><ellipse cx="108.2782" cy="842.4375" fill="none" rx="3" ry="3" style="stroke: #038048; stroke-width: 1.0;"/><text fill="#000000" font-family="sans-serif" font-size="12" lengthAdjust="spacingAndGlyphs" textLength="116" x="117.2782" y="845.9531">Vector3: [Vector3]</text><ellipse cx="108.2782" cy="856.4063" fill="none" rx="3" ry="3" style="stroke: #038048; stroke-width: 1.0;"/><text fill="#000000" font-family="sans-serif" font-size="12" lengthAdjust="spacingAndGlyphs" textLength="106" x="117.2782" y="859.9219">visibility: Boolean</text><ellipse cx="108.2782" cy="870.375" fill="none" rx="3" ry="3" style="stroke: #038048; stroke-width: 1.0;"/><text fill="#000000" font-family="sans-serif" font-size="12" lengthAdjust="spacingAndGlyphs" textLength="83" x="117.2782" y="873.8906">matrix: Matrix</text><line style="stroke: #000000; stroke-width: 1.0;" x1="98.2782" x2="335.2782" y1="879.8594" y2="879.8594"/><ellipse cx="108.2782" cy="892.3438" fill="#84BE84" rx="3" ry="3" style="stroke: #038048; stroke-width: 1.0;"/><text fill="#000000" font-family="sans-serif" font-size="12" lengthAdjust="spacingAndGlyphs" textLength="102" x="117.2782" y="895.8594">drawMe(canvas)</text><ellipse cx="108.2782" cy="906.3125" fill="#84BE84" rx="3" ry="3" style="stroke: #038048; stroke-width: 1.0;"/><text fill="#000000" font-family="sans-serif" font-size="12" lengthAdjust="spacingAndGlyphs" textLength="163" x="117.2782" y="909.8281">addTo(CoordinateSystem)</text><ellipse cx="108.2782" cy="938.25" fill="#84BE84" rx="3" ry="3" style="stroke: #038048; stroke-width: 1.0;"/><text fill="#000000" font-family="sans-serif" font-size="12" lengthAdjust="spacingAndGlyphs" textLength="201" x="117.2782" y="941.7656">removeFrom(CoordinateSystem)</text><ellipse cx="108.2782" cy="952.2188" fill="#84BE84" rx="3" ry="3" style="stroke: #038048; stroke-width: 1.0;"/><text fill="#000000" font-family="sans-serif" font-size="12" lengthAdjust="spacingAndGlyphs" textLength="187" x="117.2782" y="955.7344">rotate(xAngle, yAngle, zAngle)</text><ellipse cx="108.2782" cy="966.1875" fill="#84BE84" rx="3" ry="3" style="stroke: #038048; stroke-width: 1.0;"/><text fill="#000000" font-family="sans-serif" font-size="12" lengthAdjust="spacingAndGlyphs" textLength="100" x="117.2782" y="969.7031">translate(x, y, z)</text><ellipse cx="108.2782" cy="980.1563" fill="#84BE84" rx="3" ry="3" style="stroke: #038048; stroke-width: 1.0;"/><text fill="#000000" font-family="sans-serif" font-size="12" lengthAdjust="spacingAndGlyphs" textLength="178" x="117.2782" y="983.6719">scale(xScale, yScale, zScale)</text><line style="stroke: #000000; stroke-width: 1.0;" x1="97.2782" x2="99.2782" y1="922.7813" y2="922.7813"/><text fill="#000000" font-family="sans-serif" font-size="12" lengthAdjust="spacingAndGlyphs" textLength="231" x="101.2782" y="927.2969">set vector3 CoordinateSystem.matrix</text><line style="stroke: #000000; stroke-width: 1.0;" x1="333.2782" x2="335.2782" y1="922.7813" y2="922.7813"/><rect fill="url(#gr0)" filter="url(#f1)" height="261.5313" style="stroke: #000000; stroke-width: 1.5;" width="275" x="370.278" y="762.9531"/><ellipse cx="438.028" cy="778.9531" fill="#ADD1B2" rx="11" ry="11" style="stroke: #000000; stroke-width: 1.0;"/><path d="M440.9968,784.5938 Q440.4186,784.8906 439.778,785.0391 Q439.1374,785.1875 438.4343,785.1875 Q435.9343,785.1875 434.6139,783.5391 Q433.2936,781.8906 433.2936,778.7656 Q433.2936,775.6406 434.6139,773.9844 Q435.9343,772.3281 438.4343,772.3281 Q439.1374,772.3281 439.7858,772.4844 Q440.4343,772.6406 440.9968,772.9375 L440.9968,775.6563 Q440.3718,775.0781 439.778,774.8047 Q439.1843,774.5313 438.5593,774.5313 Q437.2155,774.5313 436.528,775.6016 Q435.8405,776.6719 435.8405,778.7656 Q435.8405,780.8594 436.528,781.9297 Q437.2155,783 438.5593,783 Q439.1843,783 439.778,782.7266 Q440.3718,782.4531 440.9968,781.875 L440.9968,784.5938 Z "/><text fill="#000000" font-family="sans-serif" font-size="12" font-weight="bold" lengthAdjust="spacingAndGlyphs" textLength="131" x="458.528" y="783.9688">CoordinateSystem</text><line style="stroke: #000000; stroke-width: 1.5;" x1="371.278" x2="644.278" y1="794.9531" y2="794.9531"/><ellipse cx="381.278" cy="807.4375" fill="none" rx="3" ry="3" style="stroke: #038048; stroke-width: 1.0;"/><text fill="#000000" font-family="sans-serif" font-size="12" lengthAdjust="spacingAndGlyphs" textLength="164" x="390.278" y="810.9531">parent: CoordinateSystem</text><ellipse cx="381.278" cy="821.4063" fill="none" rx="3" ry="3" style="stroke: #038048; stroke-width: 1.0;"/><text fill="#000000" font-family="sans-serif" font-size="12" lengthAdjust="spacingAndGlyphs" textLength="182" x="390.278" y="824.9219">children: [CoordinateSystem]</text><ellipse cx="381.278" cy="835.375" fill="none" rx="3" ry="3" style="stroke: #038048; stroke-width: 1.0;"/><text fill="#000000" font-family="sans-serif" font-size="12" lengthAdjust="spacingAndGlyphs" textLength="83" x="390.278" y="838.8906">matrix: Matrix</text><ellipse cx="381.278" cy="849.3438" fill="none" rx="3" ry="3" style="stroke: #038048; stroke-width: 1.0;"/><text fill="#000000" font-family="sans-serif" font-size="12" lengthAdjust="spacingAndGlyphs" textLength="120" x="390.278" y="852.8594">globalMatrix: Matrix</text><ellipse cx="381.278" cy="863.3125" fill="none" rx="3" ry="3" style="stroke: #038048; stroke-width: 1.0;"/><text fill="#000000" font-family="sans-serif" font-size="12" lengthAdjust="spacingAndGlyphs" textLength="211" x="390.278" y="866.8281">xAxis: [Number, Number, Number]</text><ellipse cx="381.278" cy="877.2813" fill="none" rx="3" ry="3" style="stroke: #038048; stroke-width: 1.0;"/><text fill="#000000" font-family="sans-serif" font-size="12" lengthAdjust="spacingAndGlyphs" textLength="211" x="390.278" y="880.7969">yAxis: [Number, Number, Number]</text><ellipse cx="381.278" cy="891.25" fill="none" rx="3" ry="3" style="stroke: #038048; stroke-width: 1.0;"/><text fill="#000000" font-family="sans-serif" font-size="12" lengthAdjust="spacingAndGlyphs" textLength="210" x="390.278" y="894.7656">zAxis: [Number, Number, Number]</text><ellipse cx="381.278" cy="905.2188" fill="none" rx="3" ry="3" style="stroke: #038048; stroke-width: 1.0;"/><text fill="#000000" font-family="sans-serif" font-size="12" lengthAdjust="spacingAndGlyphs" textLength="216" x="390.278" y="908.7344">origin: [Number, Number, Number]</text><line style="stroke: #000000; stroke-width: 1.0;" x1="371.278" x2="644.278" y1="914.7031" y2="914.7031"/><ellipse cx="381.278" cy="927.1875" fill="#84BE84" rx="3" ry="3" style="stroke: #038048; stroke-width: 1.0;"/><text fill="#000000" font-family="sans-serif" font-size="12" lengthAdjust="spacingAndGlyphs" textLength="249" x="390.278" y="930.7031">set(xAxis|yAxis|zAxis|origin|matrix, value)</text><ellipse cx="381.278" cy="941.1563" fill="#84BE84" rx="3" ry="3" style="stroke: #038048; stroke-width: 1.0;"/><text fill="#000000" font-family="sans-serif" font-size="12" lengthAdjust="spacingAndGlyphs" textLength="144" x="390.278" y="944.6719">add(vector3|geometry)</text><ellipse cx="381.278" cy="973.0938" fill="#84BE84" rx="3" ry="3" style="stroke: #038048; stroke-width: 1.0;"/><text fill="#000000" font-family="sans-serif" font-size="12" lengthAdjust="spacingAndGlyphs" textLength="166" x="390.278" y="976.6094">remove(vector3|geometry)</text><ellipse cx="381.278" cy="987.0625" fill="#84BE84" rx="3" ry="3" style="stroke: #038048; stroke-width: 1.0;"/><text fill="#000000" font-family="sans-serif" font-size="12" lengthAdjust="spacingAndGlyphs" textLength="187" x="390.278" y="990.5781">rotate(xAngle, yAngle, zAngle)</text><ellipse cx="381.278" cy="1001.0313" fill="#84BE84" rx="3" ry="3" style="stroke: #038048; stroke-width: 1.0;"/><text fill="#000000" font-family="sans-serif" font-size="12" lengthAdjust="spacingAndGlyphs" textLength="100" x="390.278" y="1004.5469">translate(x, y, z)</text><ellipse cx="381.278" cy="1015" fill="#84BE84" rx="3" ry="3" style="stroke: #038048; stroke-width: 1.0;"/><text fill="#000000" font-family="sans-serif" font-size="12" lengthAdjust="spacingAndGlyphs" textLength="178" x="390.278" y="1018.5156">scale(xScale, yScale, zScale)</text><line style="stroke: #000000; stroke-width: 1.0;" x1="370.278" x2="415.778" y1="957.625" y2="957.625"/><text fill="#000000" font-family="sans-serif" font-size="12" lengthAdjust="spacingAndGlyphs" textLength="180" x="417.778" y="962.1406">set CoordinateSystem.matrix</text><line style="stroke: #000000; stroke-width: 1.0;" x1="598.778" x2="644.278" y1="957.625" y2="957.625"/><rect fill="url(#gr0)" filter="url(#f1)" height="103.875" style="stroke: #000000; stroke-width: 1.5;" width="141" x="146.278" y="1193.9531"/><ellipse cx="194.028" cy="1209.9531" fill="#ADD1B2" rx="11" ry="11" style="stroke: #000000; stroke-width: 1.0;"/><path d="M196.9968,1215.5938 Q196.4186,1215.8906 195.778,1216.0391 Q195.1374,1216.1875 194.4343,1216.1875 Q191.9343,1216.1875 190.6139,1214.5391 Q189.2936,1212.8906 189.2936,1209.7656 Q189.2936,1206.6406 190.6139,1204.9844 Q191.9343,1203.3281 194.4343,1203.3281 Q195.1374,1203.3281 195.7858,1203.4844 Q196.4343,1203.6406 196.9968,1203.9375 L196.9968,1206.6563 Q196.3718,1206.0781 195.778,1205.8047 Q195.1843,1205.5313 194.5593,1205.5313 Q193.2155,1205.5313 192.528,1206.6016 Q191.8405,1207.6719 191.8405,1209.7656 Q191.8405,1211.8594 192.528,1212.9297 Q193.2155,1214 194.5593,1214 Q195.1843,1214 195.778,1213.7266 Q196.3718,1213.4531 196.9968,1212.875 L196.9968,1215.5938 Z "/><text fill="#000000" font-family="sans-serif" font-size="12" font-weight="bold" lengthAdjust="spacingAndGlyphs" textLength="37" x="214.528" y="1214.9688">Point</text><line style="stroke: #000000; stroke-width: 1.5;" x1="147.278" x2="286.278" y1="1225.9531" y2="1225.9531"/><ellipse cx="157.278" cy="1238.4375" fill="none" rx="3" ry="3" style="stroke: #038048; stroke-width: 1.0;"/><text fill="#000000" font-family="sans-serif" font-size="12" lengthAdjust="spacingAndGlyphs" textLength="115" x="166.278" y="1241.9531">origin: vector3s[0]</text><ellipse cx="157.278" cy="1252.4063" fill="none" rx="3" ry="3" style="stroke: #038048; stroke-width: 1.0;"/><text fill="#000000" font-family="sans-serif" font-size="12" lengthAdjust="spacingAndGlyphs" textLength="96" x="166.278" y="1255.9219">radius: Number</text><ellipse cx="157.278" cy="1266.375" fill="none" rx="3" ry="3" style="stroke: #038048; stroke-width: 1.0;"/><text fill="#000000" font-family="sans-serif" font-size="12" lengthAdjust="spacingAndGlyphs" textLength="76" x="166.278" y="1269.8906">color: String</text><line style="stroke: #000000; stroke-width: 1.5;" x1="147.278" x2="286.278" y1="1275.8594" y2="1275.8594"/><ellipse cx="157.278" cy="1288.3438" fill="#84BE84" rx="3" ry="3" style="stroke: #038048; stroke-width: 1.0;"/><text fill="#000000" font-family="sans-serif" font-size="12" lengthAdjust="spacingAndGlyphs" textLength="102" x="166.278" y="1291.8594">drawMe(canvas)</text><rect fill="url(#gr0)" filter="url(#f1)" height="285.4688" style="stroke: #000000; stroke-width: 1.5;" width="213" x="368.278" y="1103.4531"/><ellipse cx="450.528" cy="1119.4531" fill="#ADD1B2" rx="11" ry="11" style="stroke: #000000; stroke-width: 1.0;"/><path d="M453.4968,1125.0938 Q452.9186,1125.3906 452.278,1125.5391 Q451.6374,1125.6875 450.9343,1125.6875 Q448.4343,1125.6875 447.1139,1124.0391 Q445.7936,1122.3906 445.7936,1119.2656 Q445.7936,1116.1406 447.1139,1114.4844 Q448.4343,1112.8281 450.9343,1112.8281 Q451.6374,1112.8281 452.2858,1112.9844 Q452.9343,1113.1406 453.4968,1113.4375 L453.4968,1116.1563 Q452.8718,1115.5781 452.278,1115.3047 Q451.6843,1115.0313 451.0593,1115.0313 Q449.7155,1115.0313 449.028,1116.1016 Q448.3405,1117.1719 448.3405,1119.2656 Q448.3405,1121.3594 449.028,1122.4297 Q449.7155,1123.5 451.0593,1123.5 Q451.6843,1123.5 452.278,1123.2266 Q452.8718,1122.9531 453.4968,1122.375 L453.4968,1125.0938 Z "/><text fill="#000000" font-family="sans-serif" font-size="12" font-weight="bold" lengthAdjust="spacingAndGlyphs" textLength="40" x="471.028" y="1124.4688">Curve</text><line style="stroke: #000000; stroke-width: 1.5;" x1="369.278" x2="580.278" y1="1135.4531" y2="1135.4531"/><ellipse cx="379.278" cy="1147.9375" fill="none" rx="3" ry="3" style="stroke: #038048; stroke-width: 1.0;"/><text fill="#000000" font-family="sans-serif" font-size="12" lengthAdjust="spacingAndGlyphs" textLength="110" x="388.278" y="1151.4531">start: vector3s[0]</text><ellipse cx="379.278" cy="1161.9063" fill="none" rx="3" ry="3" style="stroke: #038048; stroke-width: 1.0;"/><text fill="#000000" font-family="sans-serif" font-size="12" lengthAdjust="spacingAndGlyphs" textLength="132" x="388.278" y="1165.4219">control1: vector3s[1]</text><ellipse cx="379.278" cy="1175.875" fill="none" rx="3" ry="3" style="stroke: #038048; stroke-width: 1.0;"/><text fill="#000000" font-family="sans-serif" font-size="12" lengthAdjust="spacingAndGlyphs" textLength="132" x="388.278" y="1179.3906">control2: vector3s[2]</text><ellipse cx="379.278" cy="1189.8438" fill="none" rx="3" ry="3" style="stroke: #038048; stroke-width: 1.0;"/><text fill="#000000" font-family="sans-serif" font-size="12" lengthAdjust="spacingAndGlyphs" textLength="104" x="388.278" y="1193.3594">end: vector3s[3]</text><ellipse cx="379.278" cy="1203.8125" fill="none" rx="3" ry="3" style="stroke: #038048; stroke-width: 1.0;"/><text fill="#000000" font-family="sans-serif" font-size="12" lengthAdjust="spacingAndGlyphs" textLength="127" x="388.278" y="1207.3281">tangents: [Tangent]</text><text fill="#000000" font-family="sans-serif" font-size="12" lengthAdjust="spacingAndGlyphs" textLength="0" x="392.278" y="1221.2969"/><text fill="#000000" font-family="sans-serif" font-size="12" lengthAdjust="spacingAndGlyphs" textLength="0" x="392.278" y="1235.2656"/><text fill="#000000" font-family="sans-serif" font-size="12" lengthAdjust="spacingAndGlyphs" textLength="69" x="388.278" y="1249.2344">class Line{</text><ellipse cx="379.278" cy="1259.6875" fill="none" rx="3" ry="3" style="stroke: #038048; stroke-width: 1.0;"/><text fill="#000000" font-family="sans-serif" font-size="12" lengthAdjust="spacingAndGlyphs" textLength="110" x="388.278" y="1263.2031">start: vector3s[0]</text><ellipse cx="379.278" cy="1273.6563" fill="none" rx="3" ry="3" style="stroke: #038048; stroke-width: 1.0;"/><text fill="#000000" font-family="sans-serif" font-size="12" lengthAdjust="spacingAndGlyphs" textLength="104" x="388.278" y="1277.1719">end: vector3s[1]</text><ellipse cx="379.278" cy="1287.625" fill="none" rx="3" ry="3" style="stroke: #038048; stroke-width: 1.0;"/><text fill="#000000" font-family="sans-serif" font-size="12" lengthAdjust="spacingAndGlyphs" textLength="127" x="388.278" y="1291.1406">tangents: [Tangent]</text><line style="stroke: #000000; stroke-width: 1.5;" x1="369.278" x2="580.278" y1="1297.1094" y2="1297.1094"/><ellipse cx="379.278" cy="1309.5938" fill="#84BE84" rx="3" ry="3" style="stroke: #038048; stroke-width: 1.0;"/><text fill="#000000" font-family="sans-serif" font-size="12" lengthAdjust="spacingAndGlyphs" textLength="155" x="388.278" y="1313.1094">setTangent(percentage)</text><ellipse cx="379.278" cy="1323.5625" fill="#84BE84" rx="3" ry="3" style="stroke: #038048; stroke-width: 1.0;"/><text fill="#000000" font-family="sans-serif" font-size="12" lengthAdjust="spacingAndGlyphs" textLength="102" x="388.278" y="1327.0781">drawMe(canvas)</text><text fill="#000000" font-family="sans-serif" font-size="12" lengthAdjust="spacingAndGlyphs" textLength="13" x="388.278" y="1341.0469">})</text><ellipse cx="379.278" cy="1351.5" fill="#84BE84" rx="3" ry="3" style="stroke: #038048; stroke-width: 1.0;"/><text fill="#000000" font-family="sans-serif" font-size="12" lengthAdjust="spacingAndGlyphs" textLength="187" x="388.278" y="1355.0156">rotate(xAngle, yAngle, zAngle)</text><ellipse cx="379.278" cy="1365.4688" fill="#84BE84" rx="3" ry="3" style="stroke: #038048; stroke-width: 1.0;"/><text fill="#000000" font-family="sans-serif" font-size="12" lengthAdjust="spacingAndGlyphs" textLength="103" x="388.278" y="1368.9844">drawme(canvas)</text><ellipse cx="379.278" cy="1379.4375" fill="#84BE84" rx="3" ry="3" style="stroke: #038048; stroke-width: 1.0;"/><text fill="#000000" font-family="sans-serif" font-size="12" lengthAdjust="spacingAndGlyphs" textLength="155" x="388.278" y="1382.9531">setTangent(percentage)</text><rect fill="url(#gr0)" filter="url(#f1)" height="75.9375" style="stroke: #000000; stroke-width: 1.5;" width="130" x="704.278" y="856.9531"/><ellipse cx="736.828" cy="872.9531" fill="#ADD1B2" rx="11" ry="11" style="stroke: #000000; stroke-width: 1.0;"/><path d="M739.7968,878.5938 Q739.2186,878.8906 738.578,879.0391 Q737.9374,879.1875 737.2343,879.1875 Q734.7343,879.1875 733.4139,877.5391 Q732.0936,875.8906 732.0936,872.7656 Q732.0936,869.6406 733.4139,867.9844 Q734.7343,866.3281 737.2343,866.3281 Q737.9374,866.3281 738.5858,866.4844 Q739.2343,866.6406 739.7968,866.9375 L739.7968,869.6563 Q739.1718,869.0781 738.578,868.8047 Q737.9843,868.5313 737.3593,868.5313 Q736.0155,868.5313 735.328,869.6016 Q734.6405,870.6719 734.6405,872.7656 Q734.6405,874.8594 735.328,875.9297 Q736.0155,877 737.3593,877 Q737.9843,877 738.578,876.7266 Q739.1718,876.4531 739.7968,875.875 L739.7968,878.5938 Z "/><text fill="#000000" font-family="sans-serif" font-size="12" font-weight="bold" lengthAdjust="spacingAndGlyphs" textLength="59" x="754.728" y="877.9688">Tangent</text><line style="stroke: #000000; stroke-width: 1.5;" x1="705.278" x2="833.278" y1="888.9531" y2="888.9531"/><ellipse cx="715.278" cy="901.4375" fill="none" rx="3" ry="3" style="stroke: #038048; stroke-width: 1.0;"/><text fill="#000000" font-family="sans-serif" font-size="12" lengthAdjust="spacingAndGlyphs" textLength="88" x="724.278" y="904.9531">base: Vector3</text><ellipse cx="715.278" cy="915.4063" fill="none" rx="3" ry="3" style="stroke: #038048; stroke-width: 1.0;"/><text fill="#000000" font-family="sans-serif" font-size="12" lengthAdjust="spacingAndGlyphs" textLength="104" x="724.278" y="918.9219">vector3: Vector3</text><line style="stroke: #000000; stroke-width: 1.5;" x1="705.278" x2="833.278" y1="924.8906" y2="924.8906"/><rect fill="url(#gr0)" filter="url(#f1)" height="187.6875" style="stroke: #000000; stroke-width: 1.5;" width="147" x="623.278" y="496.9531"/><ellipse cx="676.028" cy="512.9531" fill="#ADD1B2" rx="11" ry="11" style="stroke: #000000; stroke-width: 1.0;"/><path d="M678.9968,518.5938 Q678.4186,518.8906 677.778,519.0391 Q677.1374,519.1875 676.4343,519.1875 Q673.9343,519.1875 672.6139,517.5391 Q671.2936,515.8906 671.2936,512.7656 Q671.2936,509.6406 672.6139,507.9844 Q673.9343,506.3281 676.4343,506.3281 Q677.1374,506.3281 677.7858,506.4844 Q678.4343,506.6406 678.9968,506.9375 L678.9968,509.6563 Q678.3718,509.0781 677.778,508.8047 Q677.1843,508.5313 676.5593,508.5313 Q675.2155,508.5313 674.528,509.6016 Q673.8405,510.6719 673.8405,512.7656 Q673.8405,514.8594 674.528,515.9297 Q675.2155,517 676.5593,517 Q677.1843,517 677.778,516.7266 Q678.3718,516.4531 678.9968,515.875 L678.9968,518.5938 Z "/><text fill="#000000" font-family="sans-serif" font-size="12" font-weight="bold" lengthAdjust="spacingAndGlyphs" textLength="33" x="696.528" y="517.9688">Limb</text><line style="stroke: #000000; stroke-width: 1.5;" x1="624.278" x2="769.278" y1="528.9531" y2="528.9531"/><ellipse cx="634.278" cy="541.4375" fill="none" rx="3" ry="3" style="stroke: #038048; stroke-width: 1.0;"/><text fill="#000000" font-family="sans-serif" font-size="12" lengthAdjust="spacingAndGlyphs" textLength="75" x="643.278" y="544.9531">base: {x, y}</text><ellipse cx="634.278" cy="555.4063" fill="none" rx="3" ry="3" style="stroke: #038048; stroke-width: 1.0;"/><text fill="#000000" font-family="sans-serif" font-size="12" lengthAdjust="spacingAndGlyphs" textLength="92" x="643.278" y="558.9219">angle: Number</text><ellipse cx="634.278" cy="569.375" fill="none" rx="3" ry="3" style="stroke: #038048; stroke-width: 1.0;"/><text fill="#000000" font-family="sans-serif" font-size="12" lengthAdjust="spacingAndGlyphs" textLength="90" x="643.278" y="572.8906">scale: Number</text><ellipse cx="634.278" cy="583.3438" fill="none" rx="3" ry="3" style="stroke: #038048; stroke-width: 1.0;"/><text fill="#000000" font-family="sans-serif" font-size="12" lengthAdjust="spacingAndGlyphs" textLength="95" x="643.278" y="586.8594">zIndex: Number</text><ellipse cx="634.278" cy="597.3125" fill="none" rx="3" ry="3" style="stroke: #038048; stroke-width: 1.0;"/><text fill="#000000" font-family="sans-serif" font-size="12" lengthAdjust="spacingAndGlyphs" textLength="90" x="643.278" y="600.8281">width: Number</text><ellipse cx="634.278" cy="611.2813" fill="none" rx="3" ry="3" style="stroke: #038048; stroke-width: 1.0;"/><text fill="#000000" font-family="sans-serif" font-size="12" lengthAdjust="spacingAndGlyphs" textLength="97" x="643.278" y="614.7969">height: Number</text><ellipse cx="634.278" cy="625.25" fill="none" rx="3" ry="3" style="stroke: #038048; stroke-width: 1.0;"/><text fill="#000000" font-family="sans-serif" font-size="12" lengthAdjust="spacingAndGlyphs" textLength="69" x="643.278" y="628.7656">skin: [Skin]</text><ellipse cx="634.278" cy="639.2188" fill="none" rx="3" ry="3" style="stroke: #038048; stroke-width: 1.0;"/><text fill="#000000" font-family="sans-serif" font-size="12" lengthAdjust="spacingAndGlyphs" textLength="121" x="643.278" y="642.7344">matrix: globalMatrix</text><line style="stroke: #000000; stroke-width: 1.5;" x1="624.278" x2="769.278" y1="648.7031" y2="648.7031"/><ellipse cx="634.278" cy="661.1875" fill="#84BE84" rx="3" ry="3" style="stroke: #038048; stroke-width: 1.0;"/><text fill="#000000" font-family="sans-serif" font-size="12" lengthAdjust="spacingAndGlyphs" textLength="49" x="643.278" y="664.7031">rotate()</text><ellipse cx="634.278" cy="675.1563" fill="#84BE84" rx="3" ry="3" style="stroke: #038048; stroke-width: 1.0;"/><text fill="#000000" font-family="sans-serif" font-size="12" lengthAdjust="spacingAndGlyphs" textLength="67" x="643.278" y="678.6719">translate()</text><rect fill="url(#gr0)" filter="url(#f1)" height="117.8438" style="stroke: #000000; stroke-width: 1.5;" width="124" x="634.278" y="49.9531"/><ellipse cx="670.428" cy="65.9531" fill="#ADD1B2" rx="11" ry="11" style="stroke: #000000; stroke-width: 1.0;"/><path d="M673.3968,71.5938 Q672.8186,71.8906 672.178,72.0391 Q671.5374,72.1875 670.8343,72.1875 Q668.3343,72.1875 667.0139,70.5391 Q665.6936,68.8906 665.6936,65.7656 Q665.6936,62.6406 667.0139,60.9844 Q668.3343,59.3281 670.8343,59.3281 Q671.5374,59.3281 672.1858,59.4844 Q672.8343,59.6406 673.3968,59.9375 L673.3968,62.6563 Q672.7718,62.0781 672.178,61.8047 Q671.5843,61.5313 670.9593,61.5313 Q669.6155,61.5313 668.928,62.6016 Q668.2405,63.6719 668.2405,65.7656 Q668.2405,67.8594 668.928,68.9297 Q669.6155,70 670.9593,70 Q671.5843,70 672.178,69.7266 Q672.7718,69.4531 673.3968,68.875 L673.3968,71.5938 Z "/><text fill="#000000" font-family="sans-serif" font-size="12" font-weight="bold" lengthAdjust="spacingAndGlyphs" textLength="45" x="689.128" y="70.9688">Morph</text><line style="stroke: #000000; stroke-width: 1.5;" x1="635.278" x2="757.278" y1="81.9531" y2="81.9531"/><ellipse cx="645.278" cy="94.4375" fill="none" rx="3" ry="3" style="stroke: #038048; stroke-width: 1.0;"/><text fill="#000000" font-family="sans-serif" font-size="12" lengthAdjust="spacingAndGlyphs" textLength="77" x="654.278" y="97.9531">left: Number</text><ellipse cx="645.278" cy="108.4063" fill="none" rx="3" ry="3" style="stroke: #038048; stroke-width: 1.0;"/><text fill="#000000" font-family="sans-serif" font-size="12" lengthAdjust="spacingAndGlyphs" textLength="78" x="654.278" y="111.9219">top: Number</text><ellipse cx="645.278" cy="122.375" fill="none" rx="3" ry="3" style="stroke: #038048; stroke-width: 1.0;"/><text fill="#000000" font-family="sans-serif" font-size="12" lengthAdjust="spacingAndGlyphs" textLength="90" x="654.278" y="125.8906">width: Number</text><ellipse cx="645.278" cy="136.3438" fill="none" rx="3" ry="3" style="stroke: #038048; stroke-width: 1.0;"/><text fill="#000000" font-family="sans-serif" font-size="12" lengthAdjust="spacingAndGlyphs" textLength="97" x="654.278" y="139.8594">height: Number</text><ellipse cx="645.278" cy="150.3125" fill="none" rx="3" ry="3" style="stroke: #038048; stroke-width: 1.0;"/><text fill="#000000" font-family="sans-serif" font-size="12" lengthAdjust="spacingAndGlyphs" textLength="98" x="654.278" y="153.8281">weight: Number</text><line style="stroke: #000000; stroke-width: 1.5;" x1="635.278" x2="757.278" y1="159.7969" y2="159.7969"/><rect fill="url(#gr0)" filter="url(#f1)" height="75.9375" style="stroke: #000000; stroke-width: 1.5;" width="183" x="604.278" y="304.9531"/><ellipse cx="676.528" cy="320.9531" fill="#ADD1B2" rx="11" ry="11" style="stroke: #000000; stroke-width: 1.0;"/><path d="M679.4968,326.5938 Q678.9186,326.8906 678.278,327.0391 Q677.6374,327.1875 676.9343,327.1875 Q674.4343,327.1875 673.1139,325.5391 Q671.7936,323.8906 671.7936,320.7656 Q671.7936,317.6406 673.1139,315.9844 Q674.4343,314.3281 676.9343,314.3281 Q677.6374,314.3281 678.2858,314.4844 Q678.9343,314.6406 679.4968,314.9375 L679.4968,317.6563 Q678.8718,317.0781 678.278,316.8047 Q677.6843,316.5313 677.0593,316.5313 Q675.7155,316.5313 675.028,317.6016 Q674.3405,318.6719 674.3405,320.7656 Q674.3405,322.8594 675.028,323.9297 Q675.7155,325 677.0593,325 Q677.6843,325 678.278,324.7266 Q678.8718,324.4531 679.4968,323.875 L679.4968,326.5938 Z "/><text fill="#000000" font-family="sans-serif" font-size="12" font-weight="bold" lengthAdjust="spacingAndGlyphs" textLength="30" x="697.028" y="325.9688">Skin</text><line style="stroke: #000000; stroke-width: 1.5;" x1="605.278" x2="786.278" y1="336.9531" y2="336.9531"/><ellipse cx="615.278" cy="349.4375" fill="none" rx="3" ry="3" style="stroke: #038048; stroke-width: 1.0;"/><text fill="#000000" font-family="sans-serif" font-size="12" lengthAdjust="spacingAndGlyphs" textLength="157" x="624.278" y="352.9531">morphs: {name: Morph,}</text><line style="stroke: #000000; stroke-width: 1.5;" x1="605.278" x2="786.278" y1="358.9219" y2="358.9219"/><ellipse cx="615.278" cy="371.4063" fill="#84BE84" rx="3" ry="3" style="stroke: #038048; stroke-width: 1.0;"/><text fill="#000000" font-family="sans-serif" font-size="12" lengthAdjust="spacingAndGlyphs" textLength="157" x="624.278" y="374.9219">func(Limb.matrix) Factory</text><rect fill="url(#gr0)" filter="url(#f1)" height="48" style="stroke: #000000; stroke-width: 1.5;" width="62" x="661.278" y="1221.9531"/><ellipse cx="676.278" cy="1237.9531" fill="#ADD1B2" rx="11" ry="11" style="stroke: #000000; stroke-width: 1.0;"/><path d="M679.2468,1243.5938 Q678.6686,1243.8906 678.028,1244.0391 Q677.3874,1244.1875 676.6843,1244.1875 Q674.1843,1244.1875 672.8639,1242.5391 Q671.5436,1240.8906 671.5436,1237.7656 Q671.5436,1234.6406 672.8639,1232.9844 Q674.1843,1231.3281 676.6843,1231.3281 Q677.3874,1231.3281 678.0358,1231.4844 Q678.6843,1231.6406 679.2468,1231.9375 L679.2468,1234.6563 Q678.6218,1234.0781 678.028,1233.8047 Q677.4343,1233.5313 676.8093,1233.5313 Q675.4655,1233.5313 674.778,1234.6016 Q674.0905,1235.6719 674.0905,1237.7656 Q674.0905,1239.8594 674.778,1240.9297 Q675.4655,1242 676.8093,1242 Q677.4343,1242 678.028,1241.7266 Q678.6218,1241.4531 679.2468,1240.875 L679.2468,1243.5938 Z "/><text fill="#000000" font-family="sans-serif" font-size="12" font-weight="bold" lengthAdjust="spacingAndGlyphs" textLength="30" x="690.278" y="1242.9688">Line</text><line style="stroke: #000000; stroke-width: 1.5;" x1="662.278" x2="722.278" y1="1253.9531" y2="1253.9531"/><line style="stroke: #000000; stroke-width: 1.5;" x1="662.278" x2="722.278" y1="1261.9531" y2="1261.9531"/><path d="M267.278,428.3921 C267.278,458.0481 267.278,490.9931 267.278,519.4981 " fill="none" style="stroke: #000000; stroke-width: 1.0;"/><polygon fill="#000000" points="267.278,532.6771,271.278,523.6771,267.278,527.6771,263.278,523.6771,267.278,532.6771" style="stroke: #000000; stroke-width: 1.0;"/><line style="stroke: #000000; stroke-width: 1.0;" x1="267.278" x2="267.278" y1="527.6771" y2="519.6771"/><polygon fill="none" points="267.278,414.9741,263.278,420.9741,267.278,426.9741,271.278,420.9741,267.278,414.9741" style="stroke: #000000; stroke-width: 1.0;"/><text fill="#000000" font-size="13" lengthAdjust="spacingAndGlyphs" textLength="8" x="258.1492" y="436.7345">n</text><path d="M384.911,391.4521 C429.2,416.1181 474.942,450.8171 500.278,496.9531 C542.083,573.0771 544.436,670.4271 536.043,749.6731 " fill="none" style="stroke: #000000; stroke-width: 1.0;"/><polygon fill="#000000" points="534.547,762.7331,539.5456,754.247,535.1162,757.7656,531.5976,753.3363,534.547,762.7331" style="stroke: #000000; stroke-width: 1.0;"/><line style="stroke: #000000; stroke-width: 1.0;" x1="535.1162" x2="536.0265" y1="757.7656" y2="749.8171"/><polygon fill="none" points="373.393,385.2331,376.7752,391.6018,383.9549,390.9293,380.5727,384.5606,373.393,385.2331" style="stroke: #000000; stroke-width: 1.0;"/><text fill="#000000" font-size="13" lengthAdjust="spacingAndGlyphs" textLength="8" x="381.3429" y="401.1529">1</text><path d="M148.537,390.8481 C103.7193,415.4531 57.5003,450.2691 32.2782,496.9531 C-7.4387,570.4661 2.7706,606.7811 32.2782,684.9531 C46.3895,722.3371 70.5702,757.3681 96.8469,787.6681 " fill="none" style="stroke: #000000; stroke-width: 1.0;"/><polygon fill="#000000" points="105.8269,797.7591,102.8316,788.3768,102.5028,794.0241,96.8555,793.6953,105.8269,797.7591" style="stroke: #000000; stroke-width: 1.0;"/><line style="stroke: #000000; stroke-width: 1.0;" x1="102.5028" x2="97.1847" y1="794.0241" y2="788.0481"/><polygon fill="none" points="160.194,384.6531,153.0187,383.9351,149.5962,390.2822,156.7715,391.0003,160.194,384.6531" style="stroke: #000000; stroke-width: 1.0;"/><text fill="#000000" font-size="13" lengthAdjust="spacingAndGlyphs" textLength="8" x="144.4275" y="390.6314">1</text><path d="M256.546,662.8631 C253.062,685.2991 249.105,710.1801 245.278,732.9531 C242.451,749.7741 239.355,767.5641 236.271,784.9431 " fill="none" style="stroke: #000000; stroke-width: 1.0;"/><polygon fill="#000000" points="233.975,797.8151,239.4932,789.6574,234.853,792.8928,231.6175,788.2526,233.975,797.8151" style="stroke: #000000; stroke-width: 1.0;"/><line style="stroke: #000000; stroke-width: 1.0;" x1="234.853" x2="236.2575" y1="792.8928" y2="785.0171"/><polygon fill="none" points="258.539,649.9701,253.6694,655.2887,256.706,661.8293,261.5756,656.5107,258.539,649.9701" style="stroke: #000000; stroke-width: 1.0;"/><text fill="#000000" font-size="13" lengthAdjust="spacingAndGlyphs" textLength="8" x="246.6458" y="671.735">n</text><path d="M233.434,650.1171 C223.626,670.0101 214.231,692.8361 209.278,714.9531 C203.703,739.8481 202.42,767.1681 203.25,792.8031 " fill="none" style="stroke: #000000; stroke-width: 1.0; stroke-dasharray: 7.0,7.0;"/><polygon fill="#000000" points="203.443,797.9061,207.0981,788.7606,203.253,792.9097,199.1038,789.0646,203.443,797.9061" style="stroke: #000000; stroke-width: 1.0;"/><text fill="#000000" font-size="13" lengthAdjust="spacingAndGlyphs" textLength="25" x="210.278" y="728.9531">Use</text><path d="M313.553,650.1821 C338.129,681.1071 369.441,720.5081 399.69,758.5721 " fill="none" style="stroke: #000000; stroke-width: 1.0; stroke-dasharray: 7.0,7.0;"/><polygon fill="#000000" points="402.992,762.7271,400.5247,753.1923,399.8814,758.8125,394.2613,758.1692,402.992,762.7271" style="stroke: #000000; stroke-width: 1.0;"/><text fill="#000000" font-size="13" lengthAdjust="spacingAndGlyphs" textLength="25" x="374.278" y="728.9531">Use</text><path d="M216.278,1010.2341 C216.278,1072.1691 216.278,1145.2981 216.278,1193.4931 " fill="none" style="stroke: #000000; stroke-width: 1.0;"/><polygon fill="none" points="209.278,1010.1391,216.278,990.1391,223.278,1010.1391,209.278,1010.1391" style="stroke: #000000; stroke-width: 1.0;"/><text fill="#000000" font-size="13" lengthAdjust="spacingAndGlyphs" textLength="51" x="217.278" y="1068.9531">Extends</text><path d="M298.724,1006.4371 C321.312,1037.2541 346.098,1071.0721 369.747,1103.3361 " fill="none" style="stroke: #000000; stroke-width: 1.0;"/><polygon fill="none" points="292.955,1010.4081,286.778,990.1391,304.247,1002.1311,292.955,1010.4081" style="stroke: #000000; stroke-width: 1.0;"/><text fill="#000000" font-size="13" lengthAdjust="spacingAndGlyphs" textLength="51" x="346.278" y="1068.9531">Extends</text><path d="M320.576,1003.0451 C330.833,1011.0641 341.463,1018.5161 352.278,1024.9531 C450.84,1083.6141 506.842,1033.7081 598.278,1102.9531 C639.845,1134.4311 668.597,1189.9561 682.57,1221.7641 " fill="none" style="stroke: #000000; stroke-width: 1.0;"/><polygon fill="none" points="315.779,1008.1631,304.792,990.0441,324.68,997.3571,315.779,1008.1631" style="stroke: #000000; stroke-width: 1.0;"/><text fill="#000000" font-size="13" lengthAdjust="spacingAndGlyphs" textLength="51" x="542.278" y="1068.9531">Extends</text><path d="M730.643,942.2681 C710.382,966.9861 685.094,997.6871 662.278,1024.9531 C638.711,1053.1171 613.32,1083.1631 589.055,1111.7351 " fill="none" style="stroke: #000000; stroke-width: 1.0;"/><polygon fill="#000000" points="580.524,1121.7751,589.4003,1117.5076,583.762,1117.9652,583.3044,1112.3269,580.524,1121.7751" style="stroke: #000000; stroke-width: 1.0;"/><line style="stroke: #000000; stroke-width: 1.0;" x1="583.762" x2="588.942" y1="1117.9652" y2="1111.8686"/><polygon fill="none" points="738.997,932.0681,732.1007,934.1754,731.3934,941.3517,738.2897,939.2445,738.997,932.0681" style="stroke: #000000; stroke-width: 1.0;"/><text fill="#000000" font-size="13" lengthAdjust="spacingAndGlyphs" textLength="8" x="713.2984" y="953.9727">1</text><path d="M744.411,932.1541 C725.096,963.4181 699.874,1010.0681 689.278,1054.9531 C677.637,1104.2671 680.96,1162.7511 685.531,1201.8941 " fill="none" style="stroke: #000000; stroke-width: 1.0;"/><polygon fill="none" points="692.471,1200.9801,688.15,1221.7241,678.592,1202.8131,692.471,1200.9801" style="stroke: #000000; stroke-width: 1.0;"/><text fill="#000000" font-size="13" lengthAdjust="spacingAndGlyphs" textLength="51" x="690.278" y="1068.9531">Extends</text><path d="M765.567,945.1651 C762.31,981.0531 756.602,1030.3361 747.278,1072.9531 C736.766,1121.0011 718.631,1174.7601 706.073,1209.4111 " fill="none" style="stroke: #000000; stroke-width: 1.0;"/><polygon fill="#000000" points="701.561,1221.7031,708.4167,1214.6321,703.2835,1217.0092,700.9064,1211.876,701.561,1221.7031" style="stroke: #000000; stroke-width: 1.0;"/><line style="stroke: #000000; stroke-width: 1.0;" x1="703.2835" x2="706.0405" y1="1217.0092" y2="1209.4996"/><polygon fill="none" points="766.697,932.1071,762.1937,937.7392,765.6605,944.0623,770.1638,938.4302,766.697,932.1071" style="stroke: #000000; stroke-width: 1.0;"/><text fill="#000000" font-size="13" lengthAdjust="spacingAndGlyphs" textLength="8" x="755.767" y="953.862">1</text><path d="M637.513,685.1631 C623.019,708.4011 607.209,733.7471 591.76,758.5141 " fill="none" style="stroke: #000000; stroke-width: 1.0; stroke-dasharray: 7.0,7.0;"/><polygon fill="#000000" points="589.083,762.8061,597.2393,757.2857,591.7286,758.5634,590.451,753.0527,589.083,762.8061" style="stroke: #000000; stroke-width: 1.0;"/><text fill="#000000" font-size="13" lengthAdjust="spacingAndGlyphs" textLength="25" x="619.278" y="728.9531">Use</text><path d="M718.876,685.0591 C732.262,740.8041 748.581,808.7631 758.952,851.9521 " fill="none" style="stroke: #000000; stroke-width: 1.0; stroke-dasharray: 7.0,7.0;"/><polygon fill="#000000" points="760.125,856.8331,761.9141,847.1481,758.9581,851.9712,754.135,849.0152,760.125,856.8331" style="stroke: #000000; stroke-width: 1.0;"/><text fill="#000000" font-size="13" lengthAdjust="spacingAndGlyphs" textLength="25" x="729.278" y="728.9531">Use</text><path d="M696.278,180.3531 C696.278,216.2531 696.278,258.9331 696.278,291.5631 " fill="none" style="stroke: #000000; stroke-width: 1.0;"/><polygon fill="#000000" points="696.278,304.8831,700.278,295.8831,696.278,299.8831,692.278,295.8831,696.278,304.8831" style="stroke: #000000; stroke-width: 1.0;"/><line style="stroke: #000000; stroke-width: 1.0;" x1="696.278" x2="696.278" y1="299.8831" y2="291.8831"/><polygon fill="none" points="696.278,167.0931,692.278,173.0931,696.278,179.0931,700.278,173.0931,696.278,167.0931" style="stroke: #000000; stroke-width: 1.0;"/><text fill="#000000" font-size="13" lengthAdjust="spacingAndGlyphs" textLength="8" x="687.0056" y="188.8932">n</text><path d="M696.278,380.0831 C696.278,409.5661 696.278,452.2191 696.278,491.4621 " fill="none" style="stroke: #000000; stroke-width: 1.0;"/><polygon fill="#000000" points="696.278,496.7251,700.278,487.7251,696.278,491.7251,692.278,487.7251,696.278,496.7251" style="stroke: #000000; stroke-width: 1.0;"/><text fill="#000000" font-size="13" lengthAdjust="spacingAndGlyphs" textLength="8" x="686.8257" y="402.0129">n</text></g></svg>