<?xml version="1.0" encoding="UTF-8" standalone="yes"?><svg xmlns="http://www.w3.org/2000/svg" xmlns:xlink="http://www.w3.org/1999/xlink" height="1249pt" style="width:936px;height:1249px;" version="1.1" viewBox="0 0 936 1249" width="936pt"><defs><linearGradient id="gr0" x1="0%" x2="100%" y1="50%" y2="50%"><stop offset="0%" stop-color="#FEF3E3"/><stop offset="100%" stop-color="#E8D7BE"/></linearGradient><filter height="300%" id="f1" width="300%" x="-1" y="-1"><feGaussianBlur result="blurOut" stdDeviation="2"/><feColorMatrix in="blurOut" result="blurOut2" type="matrix" values="0 0 0 0 0 0 0 0 0 0 0 0 0 0 0 0 0 0 .4 0"/><feOffset dx="4" dy="4" in="blurOut2" result="blurOut3"/><feBlend in="SourceGraphic" in2="blurOut3" mode="normal"/></filter></defs><g><text fill="#000000" font-size="18" lengthAdjust="spacingAndGlyphs" textLength="119" x="425" y="18">ukagaka-shell</text><rect fill="url(#gr0)" filter="url(#f1)" height="117.8438" style="stroke: #000000; stroke-width: 1.5;" width="383" x="75.407" y="532.9531"/><ellipse cx="235.657" cy="548.9531" fill="#ADD1B2" rx="11" ry="11" style="stroke: #000000; stroke-width: 1.0;"/><path d="M238.6257,554.5938 Q238.0476,554.8906 237.407,555.0391 Q236.7664,555.1875 236.0632,555.1875 Q233.5632,555.1875 232.2429,553.5391 Q230.9226,551.8906 230.9226,548.7656 Q230.9226,545.6406 232.2429,543.9844 Q233.5632,542.3281 236.0632,542.3281 Q236.7664,542.3281 237.4148,542.4844 Q238.0632,542.6406 238.6257,542.9375 L238.6257,545.6563 Q238.0007,545.0781 237.407,544.8047 Q236.8132,544.5313 236.1882,544.5313 Q234.8445,544.5313 234.157,545.6016 Q233.4695,546.6719 233.4695,548.7656 Q233.4695,550.8594 234.157,551.9297 Q234.8445,553 236.1882,553 Q236.8132,553 237.407,552.7266 Q238.0007,552.4531 238.6257,551.875 L238.6257,554.5938 Z "/><text fill="#000000" font-family="sans-serif" font-size="12" font-weight="bold" lengthAdjust="spacingAndGlyphs" textLength="54" x="256.157" y="553.9688">Vector3</text><line style="stroke: #000000; stroke-width: 1.5;" x1="76.407" x2="457.407" y1="564.9531" y2="564.9531"/><ellipse cx="86.407" cy="577.4375" fill="none" rx="3" ry="3" style="stroke: #038048; stroke-width: 1.0;"/><text fill="#000000" font-family="sans-serif" font-size="12" lengthAdjust="spacingAndGlyphs" textLength="63" x="95.407" y="580.9531">x: Number</text><ellipse cx="86.407" cy="591.4063" fill="none" rx="3" ry="3" style="stroke: #038048; stroke-width: 1.0;"/><text fill="#000000" font-family="sans-serif" font-size="12" lengthAdjust="spacingAndGlyphs" textLength="63" x="95.407" y="594.9219">y: Number</text><ellipse cx="86.407" cy="605.375" fill="none" rx="3" ry="3" style="stroke: #038048; stroke-width: 1.0;"/><text fill="#000000" font-family="sans-serif" font-size="12" lengthAdjust="spacingAndGlyphs" textLength="62" x="95.407" y="608.8906">z: Number</text><ellipse cx="86.407" cy="619.3438" fill="none" rx="3" ry="3" style="stroke: #038048; stroke-width: 1.0;"/><text fill="#000000" font-family="sans-serif" font-size="12" lengthAdjust="spacingAndGlyphs" textLength="357" x="95.407" y="622.8594">matrixs: [[Geometry.matrix,],[CoordinateSystem.matrix,],]</text><line style="stroke: #000000; stroke-width: 1.5;" x1="76.407" x2="457.407" y1="628.8281" y2="628.8281"/><ellipse cx="86.407" cy="641.3125" fill="#84BE84" rx="3" ry="3" style="stroke: #038048; stroke-width: 1.0;"/><text fill="#000000" font-family="sans-serif" font-size="12" lengthAdjust="spacingAndGlyphs" textLength="163" x="95.407" y="644.8281">addTo(CoordinateSystem)</text><rect fill="url(#gr0)" filter="url(#f1)" height="145.7813" style="stroke: #000000; stroke-width: 1.5;" width="213" x="160.407" y="269.9531"/><ellipse cx="240.657" cy="285.9531" fill="#ADD1B2" rx="11" ry="11" style="stroke: #000000; stroke-width: 1.0;"/><path d="M243.6258,291.5938 Q243.0476,291.8906 242.407,292.0391 Q241.7664,292.1875 241.0633,292.1875 Q238.5633,292.1875 237.2429,290.5391 Q235.9226,288.8906 235.9226,285.7656 Q235.9226,282.6406 237.2429,280.9844 Q238.5633,279.3281 241.0633,279.3281 Q241.7664,279.3281 242.4148,279.4844 Q243.0633,279.6406 243.6258,279.9375 L243.6258,282.6563 Q243.0008,282.0781 242.407,281.8047 Q241.8133,281.5313 241.1883,281.5313 Q239.8445,281.5313 239.157,282.6016 Q238.4695,283.6719 238.4695,285.7656 Q238.4695,287.8594 239.157,288.9297 Q239.8445,290 241.1883,290 Q241.8133,290 242.407,289.7266 Q243.0008,289.4531 243.6258,288.875 L243.6258,291.5938 Z "/><text fill="#000000" font-family="sans-serif" font-size="12" font-weight="bold" lengthAdjust="spacingAndGlyphs" textLength="44" x="261.157" y="290.9688">Matrix</text><line style="stroke: #000000; stroke-width: 1.5;" x1="161.407" x2="372.407" y1="301.9531" y2="301.9531"/><ellipse cx="171.407" cy="314.4375" fill="none" rx="3" ry="3" style="stroke: #038048; stroke-width: 1.0;"/><text fill="#000000" font-family="sans-serif" font-size="12" lengthAdjust="spacingAndGlyphs" textLength="77" x="180.407" y="317.9531">[[Number,],]</text><line style="stroke: #000000; stroke-width: 1.5;" x1="161.407" x2="372.407" y1="323.9219" y2="323.9219"/><ellipse cx="171.407" cy="336.4063" fill="#84BE84" rx="3" ry="3" style="stroke: #038048; stroke-width: 1.0;"/><text fill="#000000" font-family="sans-serif" font-size="12" lengthAdjust="spacingAndGlyphs" textLength="187" x="180.407" y="339.9219">rotate(xAngle, yAngle, zAngle)</text><ellipse cx="171.407" cy="350.375" fill="#84BE84" rx="3" ry="3" style="stroke: #038048; stroke-width: 1.0;"/><text fill="#000000" font-family="sans-serif" font-size="12" lengthAdjust="spacingAndGlyphs" textLength="100" x="180.407" y="353.8906">translate(x, y, z)</text><ellipse cx="171.407" cy="364.3438" fill="#84BE84" rx="3" ry="3" style="stroke: #038048; stroke-width: 1.0;"/><text fill="#000000" font-family="sans-serif" font-size="12" lengthAdjust="spacingAndGlyphs" textLength="178" x="180.407" y="367.8594">scale(xScale, yScale, zScale)</text><ellipse cx="171.407" cy="378.3125" fill="#84BE84" rx="3" ry="3" style="stroke: #038048; stroke-width: 1.0;"/><text fill="#000000" font-family="sans-serif" font-size="12" lengthAdjust="spacingAndGlyphs" textLength="168" x="180.407" y="381.8281">premultiply(Matrix|Number)</text><ellipse cx="171.407" cy="392.2813" fill="#84BE84" rx="3" ry="3" style="stroke: #038048; stroke-width: 1.0;"/><text fill="#000000" font-family="sans-serif" font-size="12" lengthAdjust="spacingAndGlyphs" textLength="147" x="180.407" y="395.7969">multiply(Matrix|Number)</text><ellipse cx="171.407" cy="406.25" fill="#84BE84" rx="3" ry="3" style="stroke: #038048; stroke-width: 1.0;"/><text fill="#000000" font-family="sans-serif" font-size="12" lengthAdjust="spacingAndGlyphs" textLength="71" x="180.407" y="409.7656">add(Matrix)</text><rect fill="url(#gr0)" filter="url(#f1)" height="183.6875" style="stroke: #000000; stroke-width: 1.5;" width="239" x="97.407" y="797.9531"/><ellipse cx="178.157" cy="813.9531" fill="#ADD1B2" rx="11" ry="11" style="stroke: #000000; stroke-width: 1.0;"/><path d="M181.1257,819.5938 Q180.5476,819.8906 179.907,820.0391 Q179.2664,820.1875 178.5632,820.1875 Q176.0632,820.1875 174.7429,818.5391 Q173.4226,816.8906 173.4226,813.7656 Q173.4226,810.6406 174.7429,808.9844 Q176.0632,807.3281 178.5632,807.3281 Q179.2664,807.3281 179.9148,807.4844 Q180.5632,807.6406 181.1257,807.9375 L181.1257,810.6563 Q180.5007,810.0781 179.907,809.8047 Q179.3132,809.5313 178.6882,809.5313 Q177.3445,809.5313 176.657,810.6016 Q175.9695,811.6719 175.9695,813.7656 Q175.9695,815.8594 176.657,816.9297 Q177.3445,818 178.6882,818 Q179.3132,818 179.907,817.7266 Q180.5007,817.4531 181.1257,816.875 L181.1257,819.5938 Z "/><text fill="#000000" font-family="sans-serif" font-size="12" font-weight="bold" lengthAdjust="spacingAndGlyphs" textLength="69" x="198.657" y="818.9688">Geometry</text><line style="stroke: #000000; stroke-width: 1.5;" x1="98.407" x2="335.407" y1="829.9531" y2="829.9531"/><ellipse cx="108.407" cy="842.4375" fill="none" rx="3" ry="3" style="stroke: #038048; stroke-width: 1.0;"/><text fill="#000000" font-family="sans-serif" font-size="12" lengthAdjust="spacingAndGlyphs" textLength="116" x="117.407" y="845.9531">Vector3: [Vector3]</text><ellipse cx="108.407" cy="856.4063" fill="none" rx="3" ry="3" style="stroke: #038048; stroke-width: 1.0;"/><text fill="#000000" font-family="sans-serif" font-size="12" lengthAdjust="spacingAndGlyphs" textLength="106" x="117.407" y="859.9219">visibility: Boolean</text><ellipse cx="108.407" cy="870.375" fill="none" rx="3" ry="3" style="stroke: #038048; stroke-width: 1.0;"/><text fill="#000000" font-family="sans-serif" font-size="12" lengthAdjust="spacingAndGlyphs" textLength="83" x="117.407" y="873.8906">matrix: Matrix</text><ellipse cx="108.407" cy="884.3438" fill="#84BE84" rx="3" ry="3" style="stroke: #038048; stroke-width: 1.0;"/><text fill="#000000" font-family="sans-serif" font-size="12" lengthAdjust="spacingAndGlyphs" textLength="102" x="117.407" y="887.8594">drawMe(canvas)</text><ellipse cx="108.407" cy="898.3125" fill="#84BE84" rx="3" ry="3" style="stroke: #038048; stroke-width: 1.0;"/><text fill="#000000" font-family="sans-serif" font-size="12" lengthAdjust="spacingAndGlyphs" textLength="163" x="117.407" y="901.8281">addTo(CoordinateSystem)</text><ellipse cx="108.407" cy="930.25" fill="#84BE84" rx="3" ry="3" style="stroke: #038048; stroke-width: 1.0;"/><text fill="#000000" font-family="sans-serif" font-size="12" lengthAdjust="spacingAndGlyphs" textLength="201" x="117.407" y="933.7656">removeFrom(CoordinateSystem)</text><ellipse cx="108.407" cy="944.2188" fill="#84BE84" rx="3" ry="3" style="stroke: #038048; stroke-width: 1.0;"/><text fill="#000000" font-family="sans-serif" font-size="12" lengthAdjust="spacingAndGlyphs" textLength="187" x="117.407" y="947.7344">rotate(xAngle, yAngle, zAngle)</text><ellipse cx="108.407" cy="958.1875" fill="#84BE84" rx="3" ry="3" style="stroke: #038048; stroke-width: 1.0;"/><text fill="#000000" font-family="sans-serif" font-size="12" lengthAdjust="spacingAndGlyphs" textLength="100" x="117.407" y="961.7031">translate(x, y, z)</text><ellipse cx="108.407" cy="972.1563" fill="#84BE84" rx="3" ry="3" style="stroke: #038048; stroke-width: 1.0;"/><text fill="#000000" font-family="sans-serif" font-size="12" lengthAdjust="spacingAndGlyphs" textLength="178" x="117.407" y="975.6719">scale(xScale, yScale, zScale)</text><line style="stroke: #000000; stroke-width: 1.0;" x1="97.407" x2="99.407" y1="914.7813" y2="914.7813"/><text fill="#000000" font-family="sans-serif" font-size="12" lengthAdjust="spacingAndGlyphs" textLength="231" x="101.407" y="919.2969">set vector3 CoordinateSystem.matrix</text><line style="stroke: #000000; stroke-width: 1.0;" x1="333.407" x2="335.407" y1="914.7813" y2="914.7813"/><rect fill="url(#gr0)" filter="url(#f1)" height="253.5313" style="stroke: #000000; stroke-width: 1.5;" width="275" x="370.407" y="762.9531"/><ellipse cx="438.157" cy="778.9531" fill="#ADD1B2" rx="11" ry="11" style="stroke: #000000; stroke-width: 1.0;"/><path d="M441.1258,784.5938 Q440.5476,784.8906 439.907,785.0391 Q439.2664,785.1875 438.5633,785.1875 Q436.0633,785.1875 434.7429,783.5391 Q433.4226,781.8906 433.4226,778.7656 Q433.4226,775.6406 434.7429,773.9844 Q436.0633,772.3281 438.5633,772.3281 Q439.2664,772.3281 439.9148,772.4844 Q440.5633,772.6406 441.1258,772.9375 L441.1258,775.6563 Q440.5008,775.0781 439.907,774.8047 Q439.3133,774.5313 438.6883,774.5313 Q437.3445,774.5313 436.657,775.6016 Q435.9695,776.6719 435.9695,778.7656 Q435.9695,780.8594 436.657,781.9297 Q437.3445,783 438.6883,783 Q439.3133,783 439.907,782.7266 Q440.5008,782.4531 441.1258,781.875 L441.1258,784.5938 Z "/><text fill="#000000" font-family="sans-serif" font-size="12" font-weight="bold" lengthAdjust="spacingAndGlyphs" textLength="131" x="458.657" y="783.9688">CoordinateSystem</text><line style="stroke: #000000; stroke-width: 1.5;" x1="371.407" x2="644.407" y1="794.9531" y2="794.9531"/><ellipse cx="381.407" cy="807.4375" fill="none" rx="3" ry="3" style="stroke: #038048; stroke-width: 1.0;"/><text fill="#000000" font-family="sans-serif" font-size="12" lengthAdjust="spacingAndGlyphs" textLength="164" x="390.407" y="810.9531">parent: CoordinateSystem</text><ellipse cx="381.407" cy="821.4063" fill="none" rx="3" ry="3" style="stroke: #038048; stroke-width: 1.0;"/><text fill="#000000" font-family="sans-serif" font-size="12" lengthAdjust="spacingAndGlyphs" textLength="182" x="390.407" y="824.9219">children: [CoordinateSystem]</text><ellipse cx="381.407" cy="835.375" fill="none" rx="3" ry="3" style="stroke: #038048; stroke-width: 1.0;"/><text fill="#000000" font-family="sans-serif" font-size="12" lengthAdjust="spacingAndGlyphs" textLength="83" x="390.407" y="838.8906">matrix: Matrix</text><ellipse cx="381.407" cy="849.3438" fill="none" rx="3" ry="3" style="stroke: #038048; stroke-width: 1.0;"/><text fill="#000000" font-family="sans-serif" font-size="12" lengthAdjust="spacingAndGlyphs" textLength="120" x="390.407" y="852.8594">globalMatrix: Matrix</text><ellipse cx="381.407" cy="863.3125" fill="none" rx="3" ry="3" style="stroke: #038048; stroke-width: 1.0;"/><text fill="#000000" font-family="sans-serif" font-size="12" lengthAdjust="spacingAndGlyphs" textLength="211" x="390.407" y="866.8281">xAxis: [Number, Number, Number]</text><ellipse cx="381.407" cy="877.2813" fill="none" rx="3" ry="3" style="stroke: #038048; stroke-width: 1.0;"/><text fill="#000000" font-family="sans-serif" font-size="12" lengthAdjust="spacingAndGlyphs" textLength="211" x="390.407" y="880.7969">yAxis: [Number, Number, Number]</text><ellipse cx="381.407" cy="891.25" fill="none" rx="3" ry="3" style="stroke: #038048; stroke-width: 1.0;"/><text fill="#000000" font-family="sans-serif" font-size="12" lengthAdjust="spacingAndGlyphs" textLength="210" x="390.407" y="894.7656">zAxis: [Number, Number, Number]</text><ellipse cx="381.407" cy="905.2188" fill="none" rx="3" ry="3" style="stroke: #038048; stroke-width: 1.0;"/><text fill="#000000" font-family="sans-serif" font-size="12" lengthAdjust="spacingAndGlyphs" textLength="216" x="390.407" y="908.7344">origin: [Number, Number, Number]</text><ellipse cx="381.407" cy="919.1875" fill="#84BE84" rx="3" ry="3" style="stroke: #038048; stroke-width: 1.0;"/><text fill="#000000" font-family="sans-serif" font-size="12" lengthAdjust="spacingAndGlyphs" textLength="249" x="390.407" y="922.7031">set(xAxis|yAxis|zAxis|origin|matrix, value)</text><ellipse cx="381.407" cy="933.1563" fill="#84BE84" rx="3" ry="3" style="stroke: #038048; stroke-width: 1.0;"/><text fill="#000000" font-family="sans-serif" font-size="12" lengthAdjust="spacingAndGlyphs" textLength="144" x="390.407" y="936.6719">add(vector3|geometry)</text><ellipse cx="381.407" cy="965.0938" fill="#84BE84" rx="3" ry="3" style="stroke: #038048; stroke-width: 1.0;"/><text fill="#000000" font-family="sans-serif" font-size="12" lengthAdjust="spacingAndGlyphs" textLength="166" x="390.407" y="968.6094">remove(vector3|geometry)</text><ellipse cx="381.407" cy="979.0625" fill="#84BE84" rx="3" ry="3" style="stroke: #038048; stroke-width: 1.0;"/><text fill="#000000" font-family="sans-serif" font-size="12" lengthAdjust="spacingAndGlyphs" textLength="187" x="390.407" y="982.5781">rotate(xAngle, yAngle, zAngle)</text><ellipse cx="381.407" cy="993.0313" fill="#84BE84" rx="3" ry="3" style="stroke: #038048; stroke-width: 1.0;"/><text fill="#000000" font-family="sans-serif" font-size="12" lengthAdjust="spacingAndGlyphs" textLength="100" x="390.407" y="996.5469">translate(x, y, z)</text><ellipse cx="381.407" cy="1007" fill="#84BE84" rx="3" ry="3" style="stroke: #038048; stroke-width: 1.0;"/><text fill="#000000" font-family="sans-serif" font-size="12" lengthAdjust="spacingAndGlyphs" textLength="178" x="390.407" y="1010.5156">scale(xScale, yScale, zScale)</text><line style="stroke: #000000; stroke-width: 1.0;" x1="370.407" x2="415.907" y1="949.625" y2="949.625"/><text fill="#000000" font-family="sans-serif" font-size="12" lengthAdjust="spacingAndGlyphs" textLength="180" x="417.907" y="954.1406">set CoordinateSystem.matrix</text><line style="stroke: #000000; stroke-width: 1.0;" x1="598.907" x2="644.407" y1="949.625" y2="949.625"/><rect fill="url(#gr0)" filter="url(#f1)" height="103.875" style="stroke: #000000; stroke-width: 1.5;" width="141" x="146.407" y="1115.9531"/><ellipse cx="194.157" cy="1131.9531" fill="#ADD1B2" rx="11" ry="11" style="stroke: #000000; stroke-width: 1.0;"/><path d="M197.1258,1137.5938 Q196.5476,1137.8906 195.907,1138.0391 Q195.2664,1138.1875 194.5633,1138.1875 Q192.0633,1138.1875 190.7429,1136.5391 Q189.4226,1134.8906 189.4226,1131.7656 Q189.4226,1128.6406 190.7429,1126.9844 Q192.0633,1125.3281 194.5633,1125.3281 Q195.2664,1125.3281 195.9148,1125.4844 Q196.5633,1125.6406 197.1258,1125.9375 L197.1258,1128.6563 Q196.5008,1128.0781 195.907,1127.8047 Q195.3133,1127.5313 194.6883,1127.5313 Q193.3445,1127.5313 192.657,1128.6016 Q191.9695,1129.6719 191.9695,1131.7656 Q191.9695,1133.8594 192.657,1134.9297 Q193.3445,1136 194.6883,1136 Q195.3133,1136 195.907,1135.7266 Q196.5008,1135.4531 197.1258,1134.875 L197.1258,1137.5938 Z "/><text fill="#000000" font-family="sans-serif" font-size="12" font-weight="bold" lengthAdjust="spacingAndGlyphs" textLength="37" x="214.657" y="1136.9688">Point</text><line style="stroke: #000000; stroke-width: 1.5;" x1="147.407" x2="286.407" y1="1147.9531" y2="1147.9531"/><ellipse cx="157.407" cy="1160.4375" fill="none" rx="3" ry="3" style="stroke: #038048; stroke-width: 1.0;"/><text fill="#000000" font-family="sans-serif" font-size="12" lengthAdjust="spacingAndGlyphs" textLength="115" x="166.407" y="1163.9531">origin: vector3s[0]</text><ellipse cx="157.407" cy="1174.4063" fill="none" rx="3" ry="3" style="stroke: #038048; stroke-width: 1.0;"/><text fill="#000000" font-family="sans-serif" font-size="12" lengthAdjust="spacingAndGlyphs" textLength="96" x="166.407" y="1177.9219">radius: Number</text><ellipse cx="157.407" cy="1188.375" fill="none" rx="3" ry="3" style="stroke: #038048; stroke-width: 1.0;"/><text fill="#000000" font-family="sans-serif" font-size="12" lengthAdjust="spacingAndGlyphs" textLength="76" x="166.407" y="1191.8906">color: String</text><line style="stroke: #000000; stroke-width: 1.5;" x1="147.407" x2="286.407" y1="1197.8594" y2="1197.8594"/><ellipse cx="157.407" cy="1210.3438" fill="#84BE84" rx="3" ry="3" style="stroke: #038048; stroke-width: 1.0;"/><text fill="#000000" font-family="sans-serif" font-size="12" lengthAdjust="spacingAndGlyphs" textLength="102" x="166.407" y="1213.8594">drawMe(canvas)</text><rect fill="url(#gr0)" filter="url(#f1)" height="145.7813" style="stroke: #000000; stroke-width: 1.5;" width="181" x="357.407" y="1094.9531"/><ellipse cx="423.657" cy="1110.9531" fill="#ADD1B2" rx="11" ry="11" style="stroke: #000000; stroke-width: 1.0;"/><path d="M426.6258,1116.5938 Q426.0476,1116.8906 425.407,1117.0391 Q424.7664,1117.1875 424.0633,1117.1875 Q421.5633,1117.1875 420.2429,1115.5391 Q418.9226,1113.8906 418.9226,1110.7656 Q418.9226,1107.6406 420.2429,1105.9844 Q421.5633,1104.3281 424.0633,1104.3281 Q424.7664,1104.3281 425.4148,1104.4844 Q426.0633,1104.6406 426.6258,1104.9375 L426.6258,1107.6563 Q426.0008,1107.0781 425.407,1106.8047 Q424.8133,1106.5313 424.1883,1106.5313 Q422.8445,1106.5313 422.157,1107.6016 Q421.4695,1108.6719 421.4695,1110.7656 Q421.4695,1112.8594 422.157,1113.9297 Q422.8445,1115 424.1883,1115 Q424.8133,1115 425.407,1114.7266 Q426.0008,1114.4531 426.6258,1113.875 L426.6258,1116.5938 Z "/><text fill="#000000" font-family="sans-serif" font-size="12" font-weight="bold" lengthAdjust="spacingAndGlyphs" textLength="40" x="444.157" y="1115.9688">Curve</text><line style="stroke: #000000; stroke-width: 1.5;" x1="358.407" x2="537.407" y1="1126.9531" y2="1126.9531"/><ellipse cx="368.407" cy="1139.4375" fill="none" rx="3" ry="3" style="stroke: #038048; stroke-width: 1.0;"/><text fill="#000000" font-family="sans-serif" font-size="12" lengthAdjust="spacingAndGlyphs" textLength="110" x="377.407" y="1142.9531">start: vector3s[0]</text><ellipse cx="368.407" cy="1153.4063" fill="none" rx="3" ry="3" style="stroke: #038048; stroke-width: 1.0;"/><text fill="#000000" font-family="sans-serif" font-size="12" lengthAdjust="spacingAndGlyphs" textLength="132" x="377.407" y="1156.9219">control1: vector3s[1]</text><ellipse cx="368.407" cy="1167.375" fill="none" rx="3" ry="3" style="stroke: #038048; stroke-width: 1.0;"/><text fill="#000000" font-family="sans-serif" font-size="12" lengthAdjust="spacingAndGlyphs" textLength="132" x="377.407" y="1170.8906">control2: vector3s[2]</text><ellipse cx="368.407" cy="1181.3438" fill="none" rx="3" ry="3" style="stroke: #038048; stroke-width: 1.0;"/><text fill="#000000" font-family="sans-serif" font-size="12" lengthAdjust="spacingAndGlyphs" textLength="104" x="377.407" y="1184.8594">end: vector3s[3]</text><ellipse cx="368.407" cy="1195.3125" fill="none" rx="3" ry="3" style="stroke: #038048; stroke-width: 1.0;"/><text fill="#000000" font-family="sans-serif" font-size="12" lengthAdjust="spacingAndGlyphs" textLength="127" x="377.407" y="1198.8281">tangents: [Tangent]</text><line style="stroke: #000000; stroke-width: 1.5;" x1="358.407" x2="537.407" y1="1204.7969" y2="1204.7969"/><ellipse cx="368.407" cy="1217.2813" fill="#84BE84" rx="3" ry="3" style="stroke: #038048; stroke-width: 1.0;"/><text fill="#000000" font-family="sans-serif" font-size="12" lengthAdjust="spacingAndGlyphs" textLength="155" x="377.407" y="1220.7969">setTangent(percentage)</text><ellipse cx="368.407" cy="1231.25" fill="#84BE84" rx="3" ry="3" style="stroke: #038048; stroke-width: 1.0;"/><text fill="#000000" font-family="sans-serif" font-size="12" lengthAdjust="spacingAndGlyphs" textLength="102" x="377.407" y="1234.7656">drawMe(canvas)</text><rect fill="url(#gr0)" filter="url(#f1)" height="117.8438" style="stroke: #000000; stroke-width: 1.5;" width="181" x="602.407" y="1108.9531"/><ellipse cx="673.657" cy="1124.9531" fill="#ADD1B2" rx="11" ry="11" style="stroke: #000000; stroke-width: 1.0;"/><path d="M676.6258,1130.5938 Q676.0476,1130.8906 675.407,1131.0391 Q674.7664,1131.1875 674.0633,1131.1875 Q671.5633,1131.1875 670.2429,1129.5391 Q668.9226,1127.8906 668.9226,1124.7656 Q668.9226,1121.6406 670.2429,1119.9844 Q671.5633,1118.3281 674.0633,1118.3281 Q674.7664,1118.3281 675.4148,1118.4844 Q676.0633,1118.6406 676.6258,1118.9375 L676.6258,1121.6563 Q676.0008,1121.0781 675.407,1120.8047 Q674.8133,1120.5313 674.1883,1120.5313 Q672.8445,1120.5313 672.157,1121.6016 Q671.4695,1122.6719 671.4695,1124.7656 Q671.4695,1126.8594 672.157,1127.9297 Q672.8445,1129 674.1883,1129 Q674.8133,1129 675.407,1128.7266 Q676.0008,1128.4531 676.6258,1127.875 L676.6258,1130.5938 Z "/><text fill="#000000" font-family="sans-serif" font-size="12" font-weight="bold" lengthAdjust="spacingAndGlyphs" textLength="30" x="694.157" y="1129.9688">Line</text><line style="stroke: #000000; stroke-width: 1.5;" x1="603.407" x2="782.407" y1="1140.9531" y2="1140.9531"/><ellipse cx="613.407" cy="1153.4375" fill="none" rx="3" ry="3" style="stroke: #038048; stroke-width: 1.0;"/><text fill="#000000" font-family="sans-serif" font-size="12" lengthAdjust="spacingAndGlyphs" textLength="110" x="622.407" y="1156.9531">start: vector3s[0]</text><ellipse cx="613.407" cy="1167.4063" fill="none" rx="3" ry="3" style="stroke: #038048; stroke-width: 1.0;"/><text fill="#000000" font-family="sans-serif" font-size="12" lengthAdjust="spacingAndGlyphs" textLength="104" x="622.407" y="1170.9219">end: vector3s[1]</text><ellipse cx="613.407" cy="1181.375" fill="none" rx="3" ry="3" style="stroke: #038048; stroke-width: 1.0;"/><text fill="#000000" font-family="sans-serif" font-size="12" lengthAdjust="spacingAndGlyphs" textLength="127" x="622.407" y="1184.8906">tangents: [Tangent]</text><line style="stroke: #000000; stroke-width: 1.5;" x1="603.407" x2="782.407" y1="1190.8594" y2="1190.8594"/><ellipse cx="613.407" cy="1203.3438" fill="#84BE84" rx="3" ry="3" style="stroke: #038048; stroke-width: 1.0;"/><text fill="#000000" font-family="sans-serif" font-size="12" lengthAdjust="spacingAndGlyphs" textLength="103" x="622.407" y="1206.8594">drawme(canvas)</text><ellipse cx="613.407" cy="1217.3125" fill="#84BE84" rx="3" ry="3" style="stroke: #038048; stroke-width: 1.0;"/><text fill="#000000" font-family="sans-serif" font-size="12" lengthAdjust="spacingAndGlyphs" textLength="155" x="622.407" y="1220.8281">setTangent(percentage)</text><rect fill="url(#gr0)" filter="url(#f1)" height="75.9375" style="stroke: #000000; stroke-width: 1.5;" width="130" x="704.407" y="852.9531"/><ellipse cx="736.957" cy="868.9531" fill="#ADD1B2" rx="11" ry="11" style="stroke: #000000; stroke-width: 1.0;"/><path d="M739.9258,874.5938 Q739.3476,874.8906 738.707,875.0391 Q738.0664,875.1875 737.3633,875.1875 Q734.8633,875.1875 733.5429,873.5391 Q732.2226,871.8906 732.2226,868.7656 Q732.2226,865.6406 733.5429,863.9844 Q734.8633,862.3281 737.3633,862.3281 Q738.0664,862.3281 738.7148,862.4844 Q739.3633,862.6406 739.9258,862.9375 L739.9258,865.6563 Q739.3008,865.0781 738.707,864.8047 Q738.1133,864.5313 737.4883,864.5313 Q736.1445,864.5313 735.457,865.6016 Q734.7695,866.6719 734.7695,868.7656 Q734.7695,870.8594 735.457,871.9297 Q736.1445,873 737.4883,873 Q738.1133,873 738.707,872.7266 Q739.3008,872.4531 739.9258,871.875 L739.9258,874.5938 Z "/><text fill="#000000" font-family="sans-serif" font-size="12" font-weight="bold" lengthAdjust="spacingAndGlyphs" textLength="59" x="754.857" y="873.9688">Tangent</text><line style="stroke: #000000; stroke-width: 1.5;" x1="705.407" x2="833.407" y1="884.9531" y2="884.9531"/><ellipse cx="715.407" cy="897.4375" fill="none" rx="3" ry="3" style="stroke: #038048; stroke-width: 1.0;"/><text fill="#000000" font-family="sans-serif" font-size="12" lengthAdjust="spacingAndGlyphs" textLength="88" x="724.407" y="900.9531">base: Vector3</text><ellipse cx="715.407" cy="911.4063" fill="none" rx="3" ry="3" style="stroke: #038048; stroke-width: 1.0;"/><text fill="#000000" font-family="sans-serif" font-size="12" lengthAdjust="spacingAndGlyphs" textLength="104" x="724.407" y="914.9219">vector3: Vector3</text><line style="stroke: #000000; stroke-width: 1.5;" x1="705.407" x2="833.407" y1="920.8906" y2="920.8906"/><rect fill="url(#gr0)" filter="url(#f1)" height="187.6875" style="stroke: #000000; stroke-width: 1.5;" width="147" x="623.407" y="496.9531"/><ellipse cx="676.157" cy="512.9531" fill="#ADD1B2" rx="11" ry="11" style="stroke: #000000; stroke-width: 1.0;"/><path d="M679.1258,518.5938 Q678.5476,518.8906 677.907,519.0391 Q677.2664,519.1875 676.5633,519.1875 Q674.0633,519.1875 672.7429,517.5391 Q671.4226,515.8906 671.4226,512.7656 Q671.4226,509.6406 672.7429,507.9844 Q674.0633,506.3281 676.5633,506.3281 Q677.2664,506.3281 677.9148,506.4844 Q678.5633,506.6406 679.1258,506.9375 L679.1258,509.6563 Q678.5008,509.0781 677.907,508.8047 Q677.3133,508.5313 676.6883,508.5313 Q675.3445,508.5313 674.657,509.6016 Q673.9695,510.6719 673.9695,512.7656 Q673.9695,514.8594 674.657,515.9297 Q675.3445,517 676.6883,517 Q677.3133,517 677.907,516.7266 Q678.5008,516.4531 679.1258,515.875 L679.1258,518.5938 Z "/><text fill="#000000" font-family="sans-serif" font-size="12" font-weight="bold" lengthAdjust="spacingAndGlyphs" textLength="33" x="696.657" y="517.9688">Limb</text><line style="stroke: #000000; stroke-width: 1.5;" x1="624.407" x2="769.407" y1="528.9531" y2="528.9531"/><ellipse cx="634.407" cy="541.4375" fill="none" rx="3" ry="3" style="stroke: #038048; stroke-width: 1.0;"/><text fill="#000000" font-family="sans-serif" font-size="12" lengthAdjust="spacingAndGlyphs" textLength="75" x="643.407" y="544.9531">base: {x, y}</text><ellipse cx="634.407" cy="555.4063" fill="none" rx="3" ry="3" style="stroke: #038048; stroke-width: 1.0;"/><text fill="#000000" font-family="sans-serif" font-size="12" lengthAdjust="spacingAndGlyphs" textLength="92" x="643.407" y="558.9219">angle: Number</text><ellipse cx="634.407" cy="569.375" fill="none" rx="3" ry="3" style="stroke: #038048; stroke-width: 1.0;"/><text fill="#000000" font-family="sans-serif" font-size="12" lengthAdjust="spacingAndGlyphs" textLength="90" x="643.407" y="572.8906">scale: Number</text><ellipse cx="634.407" cy="583.3438" fill="none" rx="3" ry="3" style="stroke: #038048; stroke-width: 1.0;"/><text fill="#000000" font-family="sans-serif" font-size="12" lengthAdjust="spacingAndGlyphs" textLength="95" x="643.407" y="586.8594">zIndex: Number</text><ellipse cx="634.407" cy="597.3125" fill="none" rx="3" ry="3" style="stroke: #038048; stroke-width: 1.0;"/><text fill="#000000" font-family="sans-serif" font-size="12" lengthAdjust="spacingAndGlyphs" textLength="90" x="643.407" y="600.8281">width: Number</text><ellipse cx="634.407" cy="611.2813" fill="none" rx="3" ry="3" style="stroke: #038048; stroke-width: 1.0;"/><text fill="#000000" font-family="sans-serif" font-size="12" lengthAdjust="spacingAndGlyphs" textLength="97" x="643.407" y="614.7969">height: Number</text><ellipse cx="634.407" cy="625.25" fill="none" rx="3" ry="3" style="stroke: #038048; stroke-width: 1.0;"/><text fill="#000000" font-family="sans-serif" font-size="12" lengthAdjust="spacingAndGlyphs" textLength="69" x="643.407" y="628.7656">skin: [Skin]</text><ellipse cx="634.407" cy="639.2188" fill="none" rx="3" ry="3" style="stroke: #038048; stroke-width: 1.0;"/><text fill="#000000" font-family="sans-serif" font-size="12" lengthAdjust="spacingAndGlyphs" textLength="121" x="643.407" y="642.7344">matrix: globalMatrix</text><line style="stroke: #000000; stroke-width: 1.5;" x1="624.407" x2="769.407" y1="648.7031" y2="648.7031"/><ellipse cx="634.407" cy="661.1875" fill="#84BE84" rx="3" ry="3" style="stroke: #038048; stroke-width: 1.0;"/><text fill="#000000" font-family="sans-serif" font-size="12" lengthAdjust="spacingAndGlyphs" textLength="49" x="643.407" y="664.7031">rotate()</text><ellipse cx="634.407" cy="675.1563" fill="#84BE84" rx="3" ry="3" style="stroke: #038048; stroke-width: 1.0;"/><text fill="#000000" font-family="sans-serif" font-size="12" lengthAdjust="spacingAndGlyphs" textLength="67" x="643.407" y="678.6719">translate()</text><rect fill="url(#gr0)" filter="url(#f1)" height="117.8438" style="stroke: #000000; stroke-width: 1.5;" width="124" x="649.407" y="49.9531"/><ellipse cx="685.557" cy="65.9531" fill="#ADD1B2" rx="11" ry="11" style="stroke: #000000; stroke-width: 1.0;"/><path d="M688.5258,71.5938 Q687.9476,71.8906 687.307,72.0391 Q686.6664,72.1875 685.9633,72.1875 Q683.4633,72.1875 682.1429,70.5391 Q680.8226,68.8906 680.8226,65.7656 Q680.8226,62.6406 682.1429,60.9844 Q683.4633,59.3281 685.9633,59.3281 Q686.6664,59.3281 687.3148,59.4844 Q687.9633,59.6406 688.5258,59.9375 L688.5258,62.6563 Q687.9008,62.0781 687.307,61.8047 Q686.7133,61.5313 686.0883,61.5313 Q684.7445,61.5313 684.057,62.6016 Q683.3695,63.6719 683.3695,65.7656 Q683.3695,67.8594 684.057,68.9297 Q684.7445,70 686.0883,70 Q686.7133,70 687.307,69.7266 Q687.9008,69.4531 688.5258,68.875 L688.5258,71.5938 Z "/><text fill="#000000" font-family="sans-serif" font-size="12" font-weight="bold" lengthAdjust="spacingAndGlyphs" textLength="45" x="704.257" y="70.9688">Morph</text><line style="stroke: #000000; stroke-width: 1.5;" x1="650.407" x2="772.407" y1="81.9531" y2="81.9531"/><ellipse cx="660.407" cy="94.4375" fill="none" rx="3" ry="3" style="stroke: #038048; stroke-width: 1.0;"/><text fill="#000000" font-family="sans-serif" font-size="12" lengthAdjust="spacingAndGlyphs" textLength="77" x="669.407" y="97.9531">left: Number</text><ellipse cx="660.407" cy="108.4063" fill="none" rx="3" ry="3" style="stroke: #038048; stroke-width: 1.0;"/><text fill="#000000" font-family="sans-serif" font-size="12" lengthAdjust="spacingAndGlyphs" textLength="78" x="669.407" y="111.9219">top: Number</text><ellipse cx="660.407" cy="122.375" fill="none" rx="3" ry="3" style="stroke: #038048; stroke-width: 1.0;"/><text fill="#000000" font-family="sans-serif" font-size="12" lengthAdjust="spacingAndGlyphs" textLength="90" x="669.407" y="125.8906">width: Number</text><ellipse cx="660.407" cy="136.3438" fill="none" rx="3" ry="3" style="stroke: #038048; stroke-width: 1.0;"/><text fill="#000000" font-family="sans-serif" font-size="12" lengthAdjust="spacingAndGlyphs" textLength="97" x="669.407" y="139.8594">height: Number</text><ellipse cx="660.407" cy="150.3125" fill="none" rx="3" ry="3" style="stroke: #038048; stroke-width: 1.0;"/><text fill="#000000" font-family="sans-serif" font-size="12" lengthAdjust="spacingAndGlyphs" textLength="98" x="669.407" y="153.8281">weight: Number</text><line style="stroke: #000000; stroke-width: 1.5;" x1="650.407" x2="772.407" y1="159.7969" y2="159.7969"/><rect fill="url(#gr0)" filter="url(#f1)" height="75.9375" style="stroke: #000000; stroke-width: 1.5;" width="183" x="744.407" y="304.9531"/><ellipse cx="816.657" cy="320.9531" fill="#ADD1B2" rx="11" ry="11" style="stroke: #000000; stroke-width: 1.0;"/><path d="M819.6258,326.5938 Q819.0476,326.8906 818.407,327.0391 Q817.7664,327.1875 817.0633,327.1875 Q814.5633,327.1875 813.2429,325.5391 Q811.9226,323.8906 811.9226,320.7656 Q811.9226,317.6406 813.2429,315.9844 Q814.5633,314.3281 817.0633,314.3281 Q817.7664,314.3281 818.4148,314.4844 Q819.0633,314.6406 819.6258,314.9375 L819.6258,317.6563 Q819.0008,317.0781 818.407,316.8047 Q817.8133,316.5313 817.1883,316.5313 Q815.8445,316.5313 815.157,317.6016 Q814.4695,318.6719 814.4695,320.7656 Q814.4695,322.8594 815.157,323.9297 Q815.8445,325 817.1883,325 Q817.8133,325 818.407,324.7266 Q819.0008,324.4531 819.6258,323.875 L819.6258,326.5938 Z "/><text fill="#000000" font-family="sans-serif" font-size="12" font-weight="bold" lengthAdjust="spacingAndGlyphs" textLength="30" x="837.157" y="325.9688">Skin</text><line style="stroke: #000000; stroke-width: 1.5;" x1="745.407" x2="926.407" y1="336.9531" y2="336.9531"/><ellipse cx="755.407" cy="349.4375" fill="none" rx="3" ry="3" style="stroke: #038048; stroke-width: 1.0;"/><text fill="#000000" font-family="sans-serif" font-size="12" lengthAdjust="spacingAndGlyphs" textLength="157" x="764.407" y="352.9531">morphs: {name: Morph,}</text><line style="stroke: #000000; stroke-width: 1.5;" x1="745.407" x2="926.407" y1="358.9219" y2="358.9219"/><ellipse cx="755.407" cy="371.4063" fill="#84BE84" rx="3" ry="3" style="stroke: #038048; stroke-width: 1.0;"/><text fill="#000000" font-family="sans-serif" font-size="12" lengthAdjust="spacingAndGlyphs" textLength="157" x="764.407" y="374.9219">func(Limb.matrix) Factory</text><path d="M267.407,428.3921 C267.407,458.0481 267.407,490.9931 267.407,519.4981 " fill="none" style="stroke: #000000; stroke-width: 1.0;"/><polygon fill="#000000" points="267.407,532.6771,271.407,523.6771,267.407,527.6771,263.407,523.6771,267.407,532.6771" style="stroke: #000000; stroke-width: 1.0;"/><line style="stroke: #000000; stroke-width: 1.0;" x1="267.407" x2="267.407" y1="527.6771" y2="519.6771"/><polygon fill="none" points="267.407,414.9741,263.407,420.9741,267.407,426.9741,271.407,420.9741,267.407,414.9741" style="stroke: #000000; stroke-width: 1.0;"/><text fill="#000000" font-size="13" lengthAdjust="spacingAndGlyphs" textLength="8" x="258.2782" y="436.7345">n</text><path d="M385.036,391.4541 C429.324,416.1211 475.067,450.8201 500.407,496.9531 C542.264,573.1571 544.192,670.8521 535.567,749.7711 " fill="none" style="stroke: #000000; stroke-width: 1.0;"/><polygon fill="#000000" points="534.033,762.7701,539.0598,754.3007,534.6187,757.8046,531.1149,753.3635,534.033,762.7701" style="stroke: #000000; stroke-width: 1.0;"/><line style="stroke: #000000; stroke-width: 1.0;" x1="534.6187" x2="535.5565" y1="757.8046" y2="749.8601"/><polygon fill="none" points="373.518,385.2401,376.8992,391.6094,384.079,390.938,380.6978,384.5687,373.518,385.2401" style="stroke: #000000; stroke-width: 1.0;"/><text fill="#000000" font-size="13" lengthAdjust="spacingAndGlyphs" textLength="8" x="381.4677" y="401.1529">1</text><path d="M148.666,390.8481 C103.8481,415.4531 57.6291,450.2691 32.407,496.9531 C-7.3099,570.4661 2.5248,606.9241 32.407,684.9531 C46.8756,722.7341 71.874,757.9301 98.8632,788.1251 " fill="none" style="stroke: #000000; stroke-width: 1.0;"/><polygon fill="#000000" points="107.685,797.7501,104.5524,788.4127,104.3065,794.0643,98.655,793.8184,107.685,797.7501" style="stroke: #000000; stroke-width: 1.0;"/><line style="stroke: #000000; stroke-width: 1.0;" x1="104.3065" x2="98.9011" y1="794.0643" y2="788.1666"/><polygon fill="none" points="160.323,384.6541,153.1476,383.9372,149.7261,390.2849,156.9015,391.0018,160.323,384.6541" style="stroke: #000000; stroke-width: 1.0;"/><text fill="#000000" font-size="13" lengthAdjust="spacingAndGlyphs" textLength="8" x="144.5565" y="390.6334">1</text><path d="M256.737,662.8731 C253.255,685.3101 249.285,710.1891 245.407,732.9531 C242.537,749.8011 239.367,767.6421 236.209,785.0191 " fill="none" style="stroke: #000000; stroke-width: 1.0;"/><polygon fill="#000000" points="233.858,797.8791,239.411,789.745,234.757,792.9606,231.5413,788.3066,233.858,797.8791" style="stroke: #000000; stroke-width: 1.0;"/><line style="stroke: #000000; stroke-width: 1.0;" x1="234.757" x2="236.1955" y1="792.9606" y2="785.0911"/><polygon fill="none" points="258.726,649.9801,253.8576,655.2998,256.8956,661.8397,261.764,656.5201,258.726,649.9801" style="stroke: #000000; stroke-width: 1.0;"/><text fill="#000000" font-size="13" lengthAdjust="spacingAndGlyphs" textLength="8" x="246.8425" y="671.7474">n</text><path d="M233.563,650.1171 C223.755,670.0101 214.36,692.8361 209.407,714.9531 C203.832,739.8491 202.663,767.2251 203.611,792.7801 " fill="none" style="stroke: #000000; stroke-width: 1.0; stroke-dasharray: 7.0,7.0;"/><polygon fill="#000000" points="203.829,797.8661,207.4421,788.704,203.6161,792.8707,199.4494,789.0446,203.829,797.8661" style="stroke: #000000; stroke-width: 1.0;"/><text fill="#000000" font-size="13" lengthAdjust="spacingAndGlyphs" textLength="25" x="210.407" y="728.9531">Use</text><path d="M314.251,650.1181 C339.259,681.1691 371.121,720.7311 401.723,758.7281 " fill="none" style="stroke: #000000; stroke-width: 1.0; stroke-dasharray: 7.0,7.0;"/><polygon fill="#000000" points="405.063,762.8751,402.5319,753.3571,401.9263,758.9814,396.302,758.3758,405.063,762.8751" style="stroke: #000000; stroke-width: 1.0;"/><text fill="#000000" font-size="13" lengthAdjust="spacingAndGlyphs" textLength="25" x="381.407" y="728.9531">Use</text><path d="M216.407,1002.3221 C216.407,1041.5681 216.407,1083.7571 216.407,1115.7331 " fill="none" style="stroke: #000000; stroke-width: 1.0;"/><polygon fill="none" points="209.407,1002.1371,216.407,982.1371,223.407,1002.1371,209.407,1002.1371" style="stroke: #000000; stroke-width: 1.0;"/><text fill="#000000" font-size="13" lengthAdjust="spacingAndGlyphs" textLength="51" x="217.407" y="1060.9531">Extends</text><path d="M306.075,997.8651 C333.078,1030.3631 362.067,1065.2501 386.719,1094.9171 " fill="none" style="stroke: #000000; stroke-width: 1.0;"/><polygon fill="none" points="300.404,1001.9931,293.006,982.1371,311.172,993.0461,300.404,1001.9931" style="stroke: #000000; stroke-width: 1.0;"/><text fill="#000000" font-size="13" lengthAdjust="spacingAndGlyphs" textLength="51" x="360.407" y="1060.9531">Extends</text><path d="M321.357,994.9831 C331.474,1002.9151 341.893,1010.3751 352.407,1016.9531 C372.892,1029.7681 533.425,1084.9191 555.407,1094.9531 C570.73,1101.9471 586.737,1109.8781 602.181,1117.8701 " fill="none" style="stroke: #000000; stroke-width: 1.0;"/><polygon fill="none" points="316.777,1000.2801,305.739,982.1921,325.648,989.4491,316.777,1000.2801" style="stroke: #000000; stroke-width: 1.0;"/><text fill="#000000" font-size="13" lengthAdjust="spacingAndGlyphs" textLength="51" x="475.407" y="1060.9531">Extends</text><path d="M740.06,939.0271 C721.157,965.9621 694.201,997.8771 662.407,1016.9531 C608.586,1049.2451 575.887,1011.0451 524.407,1046.9531 C510.411,1056.7151 498.391,1069.9221 488.291,1084.0301 " fill="none" style="stroke: #000000; stroke-width: 1.0;"/><polygon fill="#000000" points="480.941,1094.9511,489.2844,1089.7178,483.7326,1090.803,482.6474,1085.2512,480.941,1094.9511" style="stroke: #000000; stroke-width: 1.0;"/><line style="stroke: #000000; stroke-width: 1.0;" x1="483.7326" x2="488.199" y1="1090.803" y2="1084.1666"/><polygon fill="none" points="747.406,928.2241,740.7244,930.9364,740.6583,938.1472,747.3398,935.4349,747.406,928.2241" style="stroke: #000000; stroke-width: 1.0;"/><text fill="#000000" font-size="13" lengthAdjust="spacingAndGlyphs" textLength="8" x="725.5704" y="950.1509">1</text><path d="M743.959,928.0591 C724.728,958.4791 699.909,1003.4611 689.407,1046.9531 C686.193,1060.2651 684.809,1074.6411 684.533,1088.6771 " fill="none" style="stroke: #000000; stroke-width: 1.0;"/><polygon fill="none" points="691.535,1088.7311,684.836,1108.8341,677.536,1088.9411,691.535,1088.7311" style="stroke: #000000; stroke-width: 1.0;"/><text fill="#000000" font-size="13" lengthAdjust="spacingAndGlyphs" textLength="51" x="690.407" y="1060.9531">Extends</text><path d="M767.867,941.4601 C765.629,976.7611 760.246,1024.6101 747.407,1064.9531 C743.99,1075.6901 739.464,1086.6201 734.472,1097.1531 " fill="none" style="stroke: #000000; stroke-width: 1.0;"/><polygon fill="#000000" points="728.672,1108.8451,736.2549,1102.5603,730.894,1104.366,729.0883,1099.0051,728.672,1108.8451" style="stroke: #000000; stroke-width: 1.0;"/><line style="stroke: #000000; stroke-width: 1.0;" x1="730.894" x2="734.449" y1="1104.366" y2="1097.1991"/><polygon fill="none" points="768.602,928.1131,764.2777,933.8838,767.9413,940.0949,772.2656,934.3242,768.602,928.1131" style="stroke: #000000; stroke-width: 1.0;"/><text fill="#000000" font-size="13" lengthAdjust="spacingAndGlyphs" textLength="8" x="758.3488" y="949.7633">1</text><path d="M636.866,685.1481 C622.137,708.4501 606.089,733.8381 590.464,758.5561 " fill="none" style="stroke: #000000; stroke-width: 1.0; stroke-dasharray: 7.0,7.0;"/><polygon fill="#000000" points="587.757,762.8381,595.9464,757.367,590.4281,758.6114,589.1837,753.0932,587.757,762.8381" style="stroke: #000000; stroke-width: 1.0;"/><text fill="#000000" font-size="13" lengthAdjust="spacingAndGlyphs" textLength="25" x="613.407" y="728.9531">Use</text><path d="M719.304,685.0521 C732.564,739.5431 748.618,805.5191 758.919,847.8511 " fill="none" style="stroke: #000000; stroke-width: 1.0; stroke-dasharray: 7.0,7.0;"/><polygon fill="#000000" points="760.146,852.8941,761.9062,843.2038,758.9646,848.0357,754.1328,845.0941,760.146,852.8941" style="stroke: #000000; stroke-width: 1.0;"/><text fill="#000000" font-size="13" lengthAdjust="spacingAndGlyphs" textLength="25" x="731.407" y="728.9531">Use</text><path d="M692.409,167.2031 C685.235,192.0931 677.954,221.6531 674.407,248.9531 C663.855,330.1771 671.013,422.9421 679.886,491.3481 " fill="none" style="stroke: #000000; stroke-width: 1.0; stroke-dasharray: 7.0,7.0;"/><polygon fill="#000000" points="680.583,496.6441,683.3763,487.1997,679.9315,491.6867,675.4445,488.242,680.583,496.6441" style="stroke: #000000; stroke-width: 1.0;"/><text fill="#000000" font-size="13" lengthAdjust="spacingAndGlyphs" textLength="25" x="675.407" y="346.9531">Use</text><path d="M748.695,178.7531 C768.354,215.5531 792.011,259.8441 809.8,293.1441 " fill="none" style="stroke: #000000; stroke-width: 1.0;"/><polygon fill="#000000" points="816.07,304.8821,815.3585,295.059,813.7145,300.4717,808.3018,298.8278,816.07,304.8821" style="stroke: #000000; stroke-width: 1.0;"/><line style="stroke: #000000; stroke-width: 1.0;" x1="813.7145" x2="809.9445" y1="300.4717" y2="293.4156"/><polygon fill="none" points="742.467,167.0931,741.7607,174.2696,748.1135,177.6817,748.8198,170.5052,742.467,167.0931" style="stroke: #000000; stroke-width: 1.0;"/><text fill="#000000" font-size="13" lengthAdjust="spacingAndGlyphs" textLength="8" x="741.5706" y="188.7547">n</text><path d="M815.448,380.0811 C798.735,409.6861 774.528,452.5671 752.3,491.9421 " fill="none" style="stroke: #000000; stroke-width: 1.0;"/><polygon fill="#000000" points="749.6,496.7251,757.5067,490.8528,752.0573,492.3706,750.5395,486.9212,749.6,496.7251" style="stroke: #000000; stroke-width: 1.0;"/><text fill="#000000" font-size="13" lengthAdjust="spacingAndGlyphs" textLength="8" x="795.3564" y="401.7972">n</text></g></svg>